<svg width="1440" height="1856" viewBox="0 0 1440 1856" fill="none" xmlns="http://www.w3.org/2000/svg">
<g style="mix-blend-mode:color-dodge" opacity="0.5">
<path d="M1463.97 1388.93C536.005 1547.09 512.796 751.891 13.9036 1057.38" stroke="#A3BDFF" stroke-width="2" stroke-linecap="round" stroke-linejoin="round" stroke-dasharray="0.09 20"/>
<path d="M1463.5 1351.13C1195.68 1396.86 980.287 1384.47 812.928 1304.58C474.401 1142.29 361.215 824.699 12.9507 1024.81" stroke="#A3BDFF" stroke-width="1.85" stroke-linecap="round" stroke-linejoin="round" stroke-dasharray="0.09 20"/>
<path d="M1463.02 1313.34C1219.56 1354.84 991.244 1374.94 812.395 1290.23C474.573 1129.08 366.722 801.338 12.0935 992.267" stroke="#A3BDFF" stroke-width="1.7" stroke-linecap="round" stroke-linejoin="round" stroke-dasharray="0.09 20"/>
<path d="M1462.54 1275.57C1243.41 1312.9 1002.2 1365.44 811.862 1275.9C474.744 1115.89 372.134 777.958 11.0454 959.722" stroke="#A3BDFF" stroke-width="1.55" stroke-linecap="round" stroke-linejoin="round" stroke-dasharray="0.09 20"/>
<path d="M1462.07 1237.75C1267.29 1270.94 1013.14 1355.89 811.328 1261.53C474.896 1102.71 377.698 754.673 10.0925 927.157" stroke="#A3BDFF" stroke-width="1.4" stroke-linecap="round" stroke-linejoin="round" stroke-dasharray="0.09 20"/>
<path d="M1461.59 1199.96C1291.17 1229 1024.09 1346.34 810.794 1247.2C475.068 1089.52 383.205 731.235 9.13989 894.687" stroke="#A3BDFF" stroke-width="1.25" stroke-linecap="round" stroke-linejoin="round" stroke-dasharray="0.09 20"/>
<path d="M1461.12 1162.18C1315.04 1187.06 1035.05 1336.82 810.261 1232.85C475.239 1076.34 388.692 707.855 8.18701 862.085" stroke="#A3BDFF" stroke-width="1.1" stroke-linecap="round" stroke-linejoin="round" stroke-dasharray="0.09 20"/>
<path d="M1460.64 1124.37C1338.9 1145.12 1046.01 1327.27 809.727 1218.5C475.392 1063.13 394.199 684.494 7.23438 829.501" stroke="#A3BDFF" stroke-width="0.95" stroke-linecap="round" stroke-linejoin="round" stroke-dasharray="0.09 20"/>
<path d="M1460.16 1086.59C1362.77 1103.19 1056.96 1317.74 809.194 1204.16C475.563 1049.95 399.687 661.095 6.28149 796.955" stroke="#A3BDFF" stroke-width="0.8" stroke-linecap="round" stroke-linejoin="round" stroke-dasharray="0.09 20"/>
<path d="M1459.69 1048.82C1386.65 1061.26 1067.9 1308.21 808.66 1189.83C475.735 1036.76 405.194 637.772 5.32886 764.41" stroke="#A3BDFF" stroke-width="0.65" stroke-linecap="round" stroke-linejoin="round" stroke-dasharray="0.09 20"/>
<path d="M1459.21 1011C1410.52 1019.31 1078.86 1298.73 808.127 1175.48C475.906 1023.57 410.681 614.372 4.37598 731.845" stroke="#A3BDFF" stroke-width="0.5" stroke-linecap="round" stroke-linejoin="round" stroke-dasharray="0.09 20"/>
<path d="M1458.73 973.212C1434.38 977.366 1089.81 1289.14 807.593 1161.13C476.04 1010.37 416.188 591.03 3.48047 699.3" stroke="#A3BDFF" stroke-width="0.35" stroke-linecap="round" stroke-linejoin="round" stroke-dasharray="0.09 20"/>
<path d="M1458.26 935.427C1458.26 935.427 1100.77 1279.59 807.06 1146.78C476.23 997.183 421.676 567.669 2.4707 666.754" stroke="#A3BDFF" stroke-width="0.2" stroke-linecap="round" stroke-linejoin="round" stroke-dasharray="0.09 20"/>
</g>
<g style="mix-blend-mode:color-dodge" opacity="0.3">
<path d="M581.736 481.922C581.736 1316.52 1227.69 792.516 1534.48 419.042" stroke="#A3BDFF" stroke-width="2" stroke-linecap="round" stroke-linejoin="round" stroke-dasharray="0.09 20"/>
<path d="M581.736 478.74C581.736 728.358 644.617 857.569 747.951 894.135C965.976 971.269 1315.42 644.307 1532.72 402.235" stroke="#A3BDFF" stroke-width="1.93" stroke-linecap="round" stroke-linejoin="round" stroke-dasharray="0.09 20"/>
<path d="M581.736 475.558C581.736 714.391 644.026 844.669 755.306 876.071C979.219 939.238 1307.38 612.714 1530.99 385.467" stroke="#A3BDFF" stroke-width="1.85" stroke-linecap="round" stroke-linejoin="round" stroke-dasharray="0.09 20"/>
<path d="M581.736 472.395C581.736 700.347 643.207 831.959 762.757 857.969C991.929 907.892 1299.44 581.103 1529.33 368.68" stroke="#A3BDFF" stroke-width="1.78" stroke-linecap="round" stroke-linejoin="round" stroke-dasharray="0.09 20"/>
<path d="M581.736 469.213C581.736 686.323 642.14 819.478 770.017 839.886C1004.01 877.252 1291.3 549.491 1527.48 351.892" stroke="#A3BDFF" stroke-width="1.7" stroke-linecap="round" stroke-linejoin="round" stroke-dasharray="0.09 20"/>
<path d="M581.736 466.03C581.736 672.28 640.921 807.245 777.372 821.803C1015.9 847.241 1283.28 517.898 1525.75 335.105" stroke="#A3BDFF" stroke-width="1.63" stroke-linecap="round" stroke-linejoin="round" stroke-dasharray="0.09 20"/>
<path d="M581.736 462.868C581.736 658.256 642.273 774.661 784.727 803.701C1023.1 852.31 1275.24 486.286 1524.05 318.318" stroke="#A3BDFF" stroke-width="1.55" stroke-linecap="round" stroke-linejoin="round" stroke-dasharray="0.09 20"/>
<path d="M581.736 459.685C581.736 644.231 640.158 761.113 792.082 785.618C1035.98 824.985 1267.19 454.674 1522.26 301.626" stroke="#A3BDFF" stroke-width="1.48" stroke-linecap="round" stroke-linejoin="round" stroke-dasharray="0.09 20"/>
<path d="M581.736 456.503C581.736 630.188 637.891 748.309 799.437 767.535C1049.11 797.298 1259.15 423.062 1520.51 284.724" stroke="#A3BDFF" stroke-width="1.4" stroke-linecap="round" stroke-linejoin="round" stroke-dasharray="0.09 20"/>
<path d="M581.736 453.34C581.736 616.163 635.547 736.247 806.793 749.433C1062.13 769.116 1251.11 391.469 1518.76 267.956" stroke="#A3BDFF" stroke-width="1.32" stroke-linecap="round" stroke-linejoin="round" stroke-dasharray="0.09 20"/>
<path d="M581.736 450.158C581.736 602.139 634.099 749.966 814.205 731.35C1074.11 704.482 1243.13 359.781 1517.08 251.169" stroke="#A3BDFF" stroke-width="1.25" stroke-linecap="round" stroke-linejoin="round" stroke-dasharray="0.09 20"/>
<path d="M581.736 446.976C581.736 588.096 632.803 739.2 821.503 713.267C1085.79 676.929 1234.99 328.245 1515.27 234.381" stroke="#A3BDFF" stroke-width="1.18" stroke-linecap="round" stroke-linejoin="round" stroke-dasharray="0.09 20"/>
<path d="M581.736 443.813C581.736 574.072 631.603 728.625 828.858 695.165C1097.64 649.586 1227.1 296.634 1513.52 217.594" stroke="#A3BDFF" stroke-width="1.1" stroke-linecap="round" stroke-linejoin="round" stroke-dasharray="0.09 20"/>
<path d="M581.736 440.631C581.736 560.047 630.46 718.24 836.213 677.082C1109.61 622.394 1218.97 265.041 1511.78 200.712" stroke="#A3BDFF" stroke-width="1.02" stroke-linecap="round" stroke-linejoin="round" stroke-dasharray="0.09 20"/>
<path d="M581.736 437.448C581.736 546.061 629.373 708.027 843.568 658.999C1121.67 595.318 1210.93 233.429 1510.03 184.02" stroke="#A3BDFF" stroke-width="0.95" stroke-linecap="round" stroke-linejoin="round" stroke-dasharray="0.09 20"/>
<path d="M581.736 434.285C581.736 531.979 628.459 697.889 850.924 640.916C1133.85 568.507 1202.88 201.817 1508.31 167.232" stroke="#A3BDFF" stroke-width="0.88" stroke-linecap="round" stroke-linejoin="round" stroke-dasharray="0.09 20"/>
<path d="M581.736 431.103C581.736 517.955 627.582 687.905 858.279 622.814C1146.14 541.602 1194.84 170.205 1506.54 150.445" stroke="#A3BDFF" stroke-width="0.8" stroke-linecap="round" stroke-linejoin="round" stroke-dasharray="0.09 20"/>
<path d="M581.736 427.921C581.736 503.912 626.782 678.034 865.653 604.73C1158.58 514.83 1186.86 138.612 1504.83 133.658" stroke="#A3BDFF" stroke-width="0.72" stroke-linecap="round" stroke-linejoin="round" stroke-dasharray="0.09 20"/>
<path d="M581.736 424.758C581.736 489.887 626.077 668.24 872.97 586.724C1171.04 488.21 1178.78 107.076 1503.06 116.947" stroke="#A3BDFF" stroke-width="0.65" stroke-linecap="round" stroke-linejoin="round" stroke-dasharray="0.09 20"/>
<path d="M581.736 421.576C581.736 475.844 625.448 658.541 880.325 568.545C1183.64 461.457 1170.74 75.3881 1501.3 100.083" stroke="#A3BDFF" stroke-width="0.58" stroke-linecap="round" stroke-linejoin="round" stroke-dasharray="0.09 20"/>
<path d="M581.736 418.394C581.736 461.819 624.896 648.957 887.68 550.462C1196.37 434.838 1162.7 43.7762 1499.55 83.2959" stroke="#A3BDFF" stroke-width="0.5" stroke-linecap="round" stroke-linejoin="round" stroke-dasharray="0.09 20"/>
<path d="M581.736 415.23C581.736 447.795 624.419 639.334 895.035 532.379C1209.12 408.237 1154.66 12.1832 1497.81 66.5085" stroke="#A3BDFF" stroke-width="0.42" stroke-linecap="round" stroke-linejoin="round" stroke-dasharray="0.09 20"/>
<path d="M581.736 412.048C581.736 433.752 624.019 629.826 902.391 514.277C1221.98 381.637 1146.62 -19.4284 1496.06 49.7214" stroke="#A3BDFF" stroke-width="0.35" stroke-linecap="round" stroke-linejoin="round" stroke-dasharray="0.09 20"/>
<path d="M581.736 408.866C581.736 419.727 623.657 620.374 909.746 496.194C1234.92 355.074 1138.57 -51.0405 1494.31 32.934" stroke="#A3BDFF" stroke-width="0.28" stroke-linecap="round" stroke-linejoin="round" stroke-dasharray="0.09 20"/>
<path d="M581.736 405.703C581.736 405.703 623.39 610.923 917.101 478.111C1247.93 328.55 1130.51 -82.6524 1492.56 16.1468" stroke="#A3BDFF" stroke-width="0.2" stroke-linecap="round" stroke-linejoin="round" stroke-dasharray="0.09 20"/>
</g>
<g opacity="0.2">
<path d="M82.5007 1167.89C82.5007 1167.89 295.61 1083.48 469.313 1404.17C783.717 1984.39 1626.74 1286.24 1786 1141.22" stroke="#A3BDFF" stroke-width="0.25" stroke-linecap="round" stroke-linejoin="round"/>
<path d="M67.7715 1179.69C67.7715 1179.69 291.97 1064.07 484.043 1397.2C801.667 1948.21 1578.59 1325.8 1763.13 1196.1" stroke="#A3BDFF" stroke-width="0.29" stroke-linecap="round" stroke-linejoin="round"/>
<path d="M53.0422 1191.48C53.0422 1191.48 287.797 1044.63 498.772 1390.25C817.711 1912.71 1530.46 1365.36 1740.12 1250.99" stroke="#A3BDFF" stroke-width="0.33" stroke-linecap="round" stroke-linejoin="round"/>
<path d="M38.3127 1203.28C38.3127 1203.28 283.014 1025.29 513.501 1383.27C832.059 1878.05 1482.32 1404.92 1717.17 1305.89" stroke="#A3BDFF" stroke-width="0.37" stroke-linecap="round" stroke-linejoin="round"/>
<path d="M23.5835 1215.09C23.5835 1215.09 277.622 1006.16 528.231 1376.32C844.941 1844.11 1434.17 1444.48 1694.25 1360.79" stroke="#A3BDFF" stroke-width="0.4" stroke-linecap="round" stroke-linejoin="round"/>
<path d="M8.854 1226.89C8.854 1226.89 271.601 987.313 542.96 1369.36C856.602 1810.88 1386.04 1484.03 1671.31 1415.66" stroke="#A3BDFF" stroke-width="0.44" stroke-linecap="round" stroke-linejoin="round"/>
<path d="M-5.87524 1238.68C-5.87524 1238.68 264.855 968.887 557.69 1362.39C867.216 1778.32 1337.91 1523.59 1648.37 1470.56" stroke="#A3BDFF" stroke-width="0.48" stroke-linecap="round" stroke-linejoin="round"/>
<path d="M-20.624 1250.48C-20.624 1250.48 257.366 950.994 572.438 1355.43C876.952 1746.34 1289.77 1563.13 1625.42 1525.46" stroke="#A3BDFF" stroke-width="0.52" stroke-linecap="round" stroke-linejoin="round"/>
<path d="M-35.3535 1262.24C-35.3535 1262.24 249.058 933.73 587.167 1348.44C885.965 1714.98 1241.62 1602.71 1602.48 1580.45" stroke="#A3BDFF" stroke-width="0.56" stroke-linecap="round" stroke-linejoin="round"/>
<path d="M-50.0825 1274.09C-50.0825 1274.09 239.855 917.343 601.896 1341.5C894.388 1684.18 1193.49 1642.26 1579.54 1635.25" stroke="#A3BDFF" stroke-width="0.6" stroke-linecap="round" stroke-linejoin="round"/>
<path d="M-64.812 1285.88C-64.812 1285.88 229.661 901.966 616.626 1334.64C902.333 1654.04 1145.36 1681.92 1556.62 1690.23" stroke="#A3BDFF" stroke-width="0.63" stroke-linecap="round" stroke-linejoin="round"/>
<path d="M-79.4651 1297.68C-79.4651 1297.68 218.38 887.751 631.279 1327.57C909.917 1624.28 1097.23 1721.46 1533.68 1745.03" stroke="#A3BDFF" stroke-width="0.67" stroke-linecap="round" stroke-linejoin="round"/>
<path d="M-94.2708 1309.47C-94.2708 1309.47 205.881 875.023 646.084 1320.62C917.234 1595.12 1049.07 1760.96 1510.73 1799.92" stroke="#A3BDFF" stroke-width="0.71" stroke-linecap="round" stroke-linejoin="round"/>
<path d="M-109 1321.31C-109 1321.31 192.066 863.99 660.814 1313.68C924.418 1566.56 1000.94 1800.53 1487.79 1854.84" stroke="#A3BDFF" stroke-width="0.75" stroke-linecap="round" stroke-linejoin="round"/>
</g>
<g opacity="0.2">
<path d="M52.0129 298.996C52.0129 298.996 524.572 246.577 551.249 556.236C607.308 1206.69 1151.47 1133.6 1458.26 908.75" stroke="#A3BDFF" stroke-width="0.25" stroke-linecap="round" stroke-linejoin="round"/>
<path d="M45.0581 339.983C45.0581 339.983 506.642 284.324 546.314 582.094C628.802 1201.37 1173.48 1093.22 1458.16 874.28" stroke="#A3BDFF" stroke-width="0.3" stroke-linecap="round" stroke-linejoin="round"/>
<path d="M38.1028 381.122C38.1028 381.122 488.577 322.053 541.378 608.103C649.99 1196.15 1195.49 1052.99 1458.07 839.962" stroke="#A3BDFF" stroke-width="0.35" stroke-linecap="round" stroke-linejoin="round"/>
<path d="M31.1479 422.185C31.1479 422.185 470.323 359.819 536.443 634.056C670.665 1190.72 1217.5 1012.69 1457.97 805.549" stroke="#A3BDFF" stroke-width="0.4" stroke-linecap="round" stroke-linejoin="round"/>
<path d="M24.1926 463.249C24.1926 463.249 451.839 397.472 531.508 659.99C690.92 1185.25 1239.51 972.488 1457.88 771.174" stroke="#A3BDFF" stroke-width="0.45" stroke-linecap="round" stroke-linejoin="round"/>
<path d="M17.238 504.312C17.238 504.312 433.109 435.143 526.573 685.923C710.642 1179.82 1261.52 932.092 1457.78 736.78" stroke="#A3BDFF" stroke-width="0.5" stroke-linecap="round" stroke-linejoin="round"/>
<path d="M10.2832 545.375C10.2832 545.375 414.112 472.967 521.638 711.876C729.811 1174.56 1283.52 891.791 1457.69 702.348" stroke="#A3BDFF" stroke-width="0.55" stroke-linecap="round" stroke-linejoin="round"/>
<path d="M3.32788 586.438C3.32788 586.438 394.847 510.79 516.702 737.809C748.447 1169.55 1305.57 851.49 1457.59 667.993" stroke="#A3BDFF" stroke-width="0.6" stroke-linecap="round" stroke-linejoin="round"/>
<path d="M-3.62695 627.501C-3.62695 627.501 375.297 548.881 511.767 763.743C766.606 1164.94 1327.54 811.189 1457.5 633.599" stroke="#A3BDFF" stroke-width="0.65" stroke-linecap="round" stroke-linejoin="round"/>
<path d="M-10.582 668.564C-10.582 668.564 355.499 587.295 506.832 789.677C784.346 1160.84 1349.55 770.869 1457.4 599.129" stroke="#A3BDFF" stroke-width="0.7" stroke-linecap="round" stroke-linejoin="round"/>
<path d="M-17.5371 709.646C-17.5371 709.646 335.529 626.053 501.897 815.648C801.819 1157.43 1371.56 730.607 1457.3 564.83" stroke="#A3BDFF" stroke-width="0.75" stroke-linecap="round" stroke-linejoin="round"/>
</g>
</svg>
