<svg width="1440" height="1447" viewBox="0 0 1440 1447" fill="none" xmlns="http://www.w3.org/2000/svg">
<g clip-path="url(#clip0_919_1757)">
<path style="mix-blend-mode:screen" d="M720.922 -233.999C938.667 -234.278 1153.26 -173.549 1346.5 -56.9628C1539.75 59.6235 1705.94 228.63 1831 435.725V1924H-365V397.88C-238.831 201.608 -74.9566 42.2758 113.571 -67.4252C302.099 -177.126 510.071 -234.165 720.922 -233.999Z" fill="url(#paint0_radial_919_1757)" fill-opacity="0.48"/>
<g style="mix-blend-mode:color-dodge" opacity="0.5">
<path d="M106.903 799.709C1037.4 958.294 1060.67 160.935 1560.92 467.253" stroke="#A3BDFF" stroke-width="2" stroke-linecap="round" stroke-linejoin="round" stroke-dasharray="0.09 20"/>
<path d="M107.38 761.801C375.925 807.657 591.907 795.238 759.72 715.124C1099.17 552.392 1212.66 233.941 1561.88 434.6" stroke="#A3BDFF" stroke-width="1.85" stroke-linecap="round" stroke-linejoin="round" stroke-dasharray="0.09 20"/>
<path d="M107.858 723.913C351.984 765.527 580.92 785.685 760.255 700.736C1099 539.151 1207.14 210.517 1562.74 401.965" stroke="#A3BDFF" stroke-width="1.7" stroke-linecap="round" stroke-linejoin="round" stroke-dasharray="0.09 20"/>
<path d="M108.336 686.043C328.062 723.473 569.934 776.15 760.79 686.368C1098.83 525.929 1201.71 187.073 1563.79 369.331" stroke="#A3BDFF" stroke-width="1.55" stroke-linecap="round" stroke-linejoin="round" stroke-dasharray="0.09 20"/>
<path d="M108.814 648.116C304.122 681.4 558.967 766.578 761.325 671.962C1098.67 512.708 1196.14 163.724 1564.74 336.678" stroke="#A3BDFF" stroke-width="1.4" stroke-linecap="round" stroke-linejoin="round" stroke-dasharray="0.09 20"/>
<path d="M109.291 610.228C280.181 639.347 547.98 757.005 761.86 657.593C1098.5 499.486 1190.61 140.223 1565.7 304.12" stroke="#A3BDFF" stroke-width="1.25" stroke-linecap="round" stroke-linejoin="round" stroke-dasharray="0.09 20"/>
<path d="M109.769 572.339C256.241 597.293 536.994 747.452 762.395 643.206C1098.33 486.264 1185.11 116.779 1566.65 271.429" stroke="#A3BDFF" stroke-width="1.1" stroke-linecap="round" stroke-linejoin="round" stroke-dasharray="0.09 20"/>
<path d="M110.247 534.432C232.319 555.239 526.008 737.88 762.93 628.819C1098.18 473.023 1179.59 93.3545 1567.61 238.756" stroke="#A3BDFF" stroke-width="0.95" stroke-linecap="round" stroke-linejoin="round" stroke-dasharray="0.09 20"/>
<path d="M110.724 496.543C208.379 513.185 515.021 728.326 763.465 614.432C1098 459.801 1174.09 69.8915 1568.56 206.122" stroke="#A3BDFF" stroke-width="0.8" stroke-linecap="round" stroke-linejoin="round" stroke-dasharray="0.09 20"/>
<path d="M111.202 458.674C184.438 471.151 504.054 718.773 764 600.063C1097.83 446.579 1168.56 46.5049 1569.52 173.488" stroke="#A3BDFF" stroke-width="0.65" stroke-linecap="round" stroke-linejoin="round" stroke-dasharray="0.09 20"/>
<path d="M111.68 420.747C160.497 429.078 493.068 709.258 764.535 585.676C1097.66 433.357 1163.06 23.0418 1570.47 140.834" stroke="#A3BDFF" stroke-width="0.5" stroke-linecap="round" stroke-linejoin="round" stroke-dasharray="0.09 20"/>
<path d="M112.157 382.859C136.576 387.024 482.081 699.647 765.07 571.289C1097.53 420.117 1157.54 -0.363655 1571.37 108.2" stroke="#A3BDFF" stroke-width="0.35" stroke-linecap="round" stroke-linejoin="round" stroke-dasharray="0.09 20"/>
<path d="M112.635 344.97C112.635 344.97 471.095 690.075 765.605 556.901C1097.33 406.895 1152.04 -23.7885 1572.38 75.5662" stroke="#A3BDFF" stroke-width="0.2" stroke-linecap="round" stroke-linejoin="round" stroke-dasharray="0.09 20"/>
</g>
<g style="mix-blend-mode:color-dodge" opacity="0.3">
<path d="M991.542 -109.769C991.542 727.103 343.825 201.67 36.2082 -172.821" stroke="#A3BDFF" stroke-width="2" stroke-linecap="round" stroke-linejoin="round" stroke-dasharray="0.09 20"/>
<path d="M991.542 -112.959C991.542 137.338 928.49 266.9 824.874 303.566C606.256 380.91 255.858 53.0585 37.966 -189.673" stroke="#A3BDFF" stroke-width="1.93" stroke-linecap="round" stroke-linejoin="round" stroke-dasharray="0.09 20"/>
<path d="M991.542 -116.15C991.542 123.333 929.082 253.965 817.499 285.453C592.977 348.791 263.921 21.3795 39.7046 -206.487" stroke="#A3BDFF" stroke-width="1.85" stroke-linecap="round" stroke-linejoin="round" stroke-dasharray="0.09 20"/>
<path d="M991.542 -119.322C991.542 109.251 929.903 241.221 810.028 267.301C580.232 317.361 271.889 -10.3185 41.3669 -223.32" stroke="#A3BDFF" stroke-width="1.78" stroke-linecap="round" stroke-linejoin="round" stroke-dasharray="0.09 20"/>
<path d="M991.542 -122.513C991.542 95.1885 930.973 228.706 802.748 249.169C568.119 286.637 280.048 -42.0165 43.2204 -240.153" stroke="#A3BDFF" stroke-width="1.7" stroke-linecap="round" stroke-linejoin="round" stroke-dasharray="0.09 20"/>
<path d="M991.542 -125.704C991.542 81.1069 932.196 216.439 795.373 231.037C556.196 256.544 288.091 -73.6953 44.959 -256.986" stroke="#A3BDFF" stroke-width="1.63" stroke-linecap="round" stroke-linejoin="round" stroke-dasharray="0.09 20"/>
<path d="M991.542 -128.875C991.542 67.0446 930.84 183.767 787.998 212.886C548.974 261.627 296.154 -105.393 46.6595 -273.818" stroke="#A3BDFF" stroke-width="1.55" stroke-linecap="round" stroke-linejoin="round" stroke-dasharray="0.09 20"/>
<path d="M991.542 -132.066C991.542 52.982 932.96 170.182 780.623 194.753C536.058 234.228 304.217 -137.091 48.4556 -290.556" stroke="#A3BDFF" stroke-width="1.48" stroke-linecap="round" stroke-linejoin="round" stroke-dasharray="0.09 20"/>
<path d="M991.542 -135.257C991.542 38.9004 935.234 157.343 773.248 176.621C522.893 206.466 312.28 -168.789 50.2133 -307.503" stroke="#A3BDFF" stroke-width="1.4" stroke-linecap="round" stroke-linejoin="round" stroke-dasharray="0.09 20"/>
<path d="M991.542 -138.429C991.542 24.8379 937.584 145.248 765.873 158.47C509.843 178.207 320.343 -200.468 51.9712 -324.317" stroke="#A3BDFF" stroke-width="1.32" stroke-linecap="round" stroke-linejoin="round" stroke-dasharray="0.09 20"/>
<path d="M991.542 -141.619C991.542 10.7753 939.036 159.005 758.44 140.338C497.825 113.397 328.349 -232.242 53.6526 -341.15" stroke="#A3BDFF" stroke-width="1.25" stroke-linecap="round" stroke-linejoin="round" stroke-dasharray="0.09 20"/>
<path d="M991.542 -144.81C991.542 -3.30636 940.336 148.21 751.122 122.205C486.113 85.7689 336.508 -263.864 55.4676 -357.983" stroke="#A3BDFF" stroke-width="1.18" stroke-linecap="round" stroke-linejoin="round" stroke-dasharray="0.09 20"/>
<path d="M991.542 -147.982C991.542 -17.3686 941.539 137.606 743.747 104.054C474.229 58.3511 344.418 -295.562 57.2255 -374.816" stroke="#A3BDFF" stroke-width="1.1" stroke-linecap="round" stroke-linejoin="round" stroke-dasharray="0.09 20"/>
<path d="M991.542 -151.173C991.542 -31.4313 942.686 127.192 736.372 85.9218C462.229 31.0857 352.576 -327.241 58.9643 -391.745" stroke="#A3BDFF" stroke-width="1.02" stroke-linecap="round" stroke-linejoin="round" stroke-dasharray="0.09 20"/>
<path d="M991.542 -154.364C991.542 -45.4555 943.775 116.951 728.997 67.7897C450.135 3.93525 360.639 -358.939 60.7219 -408.482" stroke="#A3BDFF" stroke-width="0.95" stroke-linecap="round" stroke-linejoin="round" stroke-dasharray="0.09 20"/>
<path d="M991.542 -157.535C991.542 -59.5753 944.692 106.786 721.622 49.6574C437.926 -22.9479 368.702 -390.637 62.4415 -425.315" stroke="#A3BDFF" stroke-width="0.88" stroke-linecap="round" stroke-linejoin="round" stroke-dasharray="0.09 20"/>
<path d="M991.542 -160.726C991.542 -73.6379 945.571 96.7744 714.246 31.5061C425.602 -49.9265 376.765 -422.335 64.2186 -442.148" stroke="#A3BDFF" stroke-width="0.8" stroke-linecap="round" stroke-linejoin="round" stroke-dasharray="0.09 20"/>
<path d="M991.542 -163.917C991.542 -87.7196 946.373 86.8772 706.852 13.3738C413.125 -76.7714 384.771 -454.013 65.9382 -458.981" stroke="#A3BDFF" stroke-width="0.72" stroke-linecap="round" stroke-linejoin="round" stroke-dasharray="0.09 20"/>
<path d="M991.542 -167.089C991.542 -101.782 947.08 77.0563 699.515 -4.68201C400.63 -103.463 392.872 -485.635 67.715 -475.738" stroke="#A3BDFF" stroke-width="0.65" stroke-linecap="round" stroke-linejoin="round" stroke-dasharray="0.09 20"/>
<path d="M991.542 -170.279C991.542 -115.864 947.711 67.3311 692.14 -22.9097C388 -130.289 400.935 -517.409 69.473 -492.647" stroke="#A3BDFF" stroke-width="0.58" stroke-linecap="round" stroke-linejoin="round" stroke-dasharray="0.09 20"/>
</g>
<g opacity="0.2">
<path d="M1492.14 578.071C1492.14 578.071 1278.45 493.429 1104.27 814.994C789.011 1396.79 -56.3063 696.743 -216 551.322" stroke="#A3BDFF" stroke-width="0.25" stroke-linecap="round" stroke-linejoin="round"/>
<path d="M1506.91 589.898C1506.91 589.898 1282.1 473.959 1089.5 808.001C771.013 1360.51 -8.02362 736.408 -193.072 606.349" stroke="#A3BDFF" stroke-width="0.29" stroke-linecap="round" stroke-linejoin="round"/>
<path d="M1521.68 601.725C1521.68 601.725 1286.28 454.47 1074.73 801.027C754.925 1324.91 40.2396 776.074 -169.991 661.395" stroke="#A3BDFF" stroke-width="0.33" stroke-linecap="round" stroke-linejoin="round"/>
<path d="M1536.44 613.552C1536.44 613.552 1291.08 435.077 1059.96 794.034C740.537 1290.16 88.5032 815.739 -146.986 716.442" stroke="#A3BDFF" stroke-width="0.37" stroke-linecap="round" stroke-linejoin="round"/>
<path d="M1551.21 625.398C1551.21 625.398 1296.48 415.894 1045.19 787.06C727.621 1256.13 136.786 855.404 -124.001 771.488" stroke="#A3BDFF" stroke-width="0.4" stroke-linecap="round" stroke-linejoin="round"/>
<path d="M1565.98 637.226C1565.98 637.226 1302.52 396.997 1030.42 780.086C715.928 1222.81 185.049 895.07 -100.997 826.515" stroke="#A3BDFF" stroke-width="0.44" stroke-linecap="round" stroke-linejoin="round"/>
<path d="M1580.75 649.053C1580.75 649.053 1309.29 378.521 1015.65 773.093C705.285 1190.15 233.312 934.735 -77.9926 881.562" stroke="#A3BDFF" stroke-width="0.48" stroke-linecap="round" stroke-linejoin="round"/>
<path d="M1595.54 660.879C1595.54 660.879 1316.79 360.58 1000.87 766.119C695.522 1158.09 281.576 974.382 -54.9878 936.608" stroke="#A3BDFF" stroke-width="0.52" stroke-linecap="round" stroke-linejoin="round"/>
<path d="M1610.31 672.668C1610.31 672.668 1325.13 343.269 986.096 759.107C686.485 1126.64 329.859 1014.07 -31.9833 991.75" stroke="#A3BDFF" stroke-width="0.56" stroke-linecap="round" stroke-linejoin="round"/>
<path d="M1625.08 684.553C1625.08 684.553 1334.35 326.838 971.327 752.152C678.04 1095.77 378.122 1053.73 -8.9789 1046.7" stroke="#A3BDFF" stroke-width="0.6" stroke-linecap="round" stroke-linejoin="round"/>
<path d="M1639.85 696.38C1639.85 696.38 1344.58 311.419 956.557 745.274C670.072 1065.54 426.386 1093.49 14.0066 1101.82" stroke="#A3BDFF" stroke-width="0.63" stroke-linecap="round" stroke-linejoin="round"/>
<path d="M1654.54 708.207C1654.54 708.207 1355.89 297.165 941.864 738.185C662.467 1035.7 474.649 1133.14 37.0106 1156.77" stroke="#A3BDFF" stroke-width="0.67" stroke-linecap="round" stroke-linejoin="round"/>
<path d="M1669.39 720.034C1669.39 720.034 1368.42 284.402 927.018 731.211C655.131 1006.46 522.932 1172.75 60.0152 1211.82" stroke="#A3BDFF" stroke-width="0.71" stroke-linecap="round" stroke-linejoin="round"/>
<path d="M1684.16 731.899C1684.16 731.899 1382.27 273.339 912.249 724.256C647.927 977.821 571.195 1212.43 83.0195 1266.89" stroke="#A3BDFF" stroke-width="0.75" stroke-linecap="round" stroke-linejoin="round"/>
</g>
<g opacity="0.2">
<path d="M1522.71 -293.193C1522.71 -293.193 1048.86 -345.755 1022.11 -35.2526C965.9 616.973 420.252 543.679 112.635 318.221" stroke="#A3BDFF" stroke-width="0.25" stroke-linecap="round" stroke-linejoin="round"/>
<path d="M1529.68 -252.094C1529.68 -252.094 1066.84 -307.905 1027.06 -9.32474C944.348 611.642 398.184 503.192 112.73 283.657" stroke="#A3BDFF" stroke-width="0.3" stroke-linecap="round" stroke-linejoin="round"/>
<path d="M1536.65 -210.843C1536.65 -210.843 1084.95 -270.074 1032.01 16.7557C923.102 606.406 376.116 462.858 112.826 249.246" stroke="#A3BDFF" stroke-width="0.35" stroke-linecap="round" stroke-linejoin="round"/>
<path d="M1543.63 -169.668C1543.63 -169.668 1103.26 -232.204 1036.96 42.7789C902.371 600.961 354.048 422.447 112.922 214.739" stroke="#A3BDFF" stroke-width="0.4" stroke-linecap="round" stroke-linejoin="round"/>
<path d="M1550.6 -128.493C1550.6 -128.493 1121.79 -194.449 1041.91 68.7833C882.061 595.478 331.98 382.133 113.017 180.271" stroke="#A3BDFF" stroke-width="0.45" stroke-linecap="round" stroke-linejoin="round"/>
<path d="M1557.58 -87.3183C1557.58 -87.3183 1140.57 -156.675 1046.86 94.7874C862.285 590.032 309.911 341.626 113.112 145.783" stroke="#A3BDFF" stroke-width="0.5" stroke-linecap="round" stroke-linejoin="round"/>
<path d="M1564.55 -46.1434C1564.55 -46.1434 1159.62 -118.749 1051.8 120.811C843.064 584.759 287.843 301.216 113.208 111.257" stroke="#A3BDFF" stroke-width="0.55" stroke-linecap="round" stroke-linejoin="round"/>
<path d="M1571.52 -4.96844C1571.52 -4.96844 1178.94 -80.8219 1056.75 146.815C824.377 579.734 265.737 260.805 113.304 76.8081" stroke="#A3BDFF" stroke-width="0.6" stroke-linecap="round" stroke-linejoin="round"/>
<path d="M1578.5 36.2064C1578.5 36.2064 1198.54 -42.6277 1061.7 172.819C806.168 575.11 243.706 220.395 113.399 42.3205" stroke="#A3BDFF" stroke-width="0.65" stroke-linecap="round" stroke-linejoin="round"/>
<path d="M1585.47 77.3813C1585.47 77.3813 1218.4 -4.10865 1066.65 198.823C788.381 571.002 221.638 179.965 113.495 7.75659" stroke="#A3BDFF" stroke-width="0.7" stroke-linecap="round" stroke-linejoin="round"/>
<path d="M1592.45 118.575C1592.45 118.575 1238.42 34.7542 1071.6 224.866C770.859 567.582 199.57 139.593 113.59 -26.6355" stroke="#A3BDFF" stroke-width="0.75" stroke-linecap="round" stroke-linejoin="round"/>
</g>
</g>
<defs>
<radialGradient id="paint0_radial_919_1757" cx="0" cy="0" r="1" gradientUnits="userSpaceOnUse" gradientTransform="translate(720.922 1340.6) scale(1355.66 1575.02)">
<stop stop-color="#001ABF"/>
<stop offset="0.13" stop-color="#00159B"/>
<stop offset="0.35" stop-color="#000E64"/>
<stop offset="0.55" stop-color="#000839"/>
<stop offset="0.74" stop-color="#00041A"/>
<stop offset="0.89" stop-color="#000107"/>
<stop offset="1"/>
</radialGradient>
<clipPath id="clip0_919_1757">
<rect width="1440" height="1447" fill="white"/>
</clipPath>
</defs>
</svg>
