<svg width="1092" height="1592" viewBox="0 0 1092 1592" fill="none" xmlns="http://www.w3.org/2000/svg">
<path d="M327.034 1330.68C319.033 1289.49 257.95 1172.16 288.631 1132.98C319.311 1093.8 443.073 1181.3 474.3 1142.63C505.526 1103.96 404.834 983.75 438.517 947.351C472.201 910.952 589.739 992.693 635.98 967.914C682.22 943.136 621.604 860.014 660.474 828.415C699.344 796.816 797.609 860.722 822.556 816.239C847.504 771.756 749.815 654.327 780.222 614.897C810.629 575.466 923.636 653.014 968.512 626.972C1013.39 600.931 958.121 522.761 995.627 489.898C1033.13 457.036 1114.31 505.127 1148.54 469.234C1182.77 433.34 1157.55 349.197 1159.93 317.608" stroke="url(#paint0_linear_1042_11296)" stroke-opacity="0.15" stroke-width="2" stroke-linecap="round"/>
<path d="M372.893 1349.4C362.027 1309.52 293.455 1198.71 320.734 1157.99C348.014 1117.26 475.981 1194.18 503.834 1153.91C531.686 1113.64 423.994 1002.91 454.427 964.69C484.859 926.474 606.291 998.193 649.908 970.476C693.525 942.759 627.909 865.528 663.786 831.649C699.664 797.769 800.862 853.374 822.122 807.854C843.382 762.335 738.843 654.109 765.836 613.154C792.828 572.199 909.503 640.129 951.686 611.271C993.87 582.412 933.872 509.655 968.317 474.634C1002.76 439.614 1086.02 480.931 1117.02 443.171C1148.03 405.412 1117.12 324.593 1117.14 293.388" stroke="url(#paint1_linear_1042_11296)" stroke-opacity="0.15" stroke-width="2" stroke-linecap="round"/>
<path d="M419.377 1364.31C405.794 1325.94 330.36 1222.11 354.179 1180.12C377.999 1138.13 509.295 1204.34 533.711 1162.76C558.127 1121.17 444.276 1020.28 471.376 980.521C498.475 940.767 622.973 1002.34 663.788 971.936C704.603 941.531 634.522 870.468 667.286 834.575C700.051 798.682 803.499 845.908 821.057 799.65C838.616 753.391 728.045 654.728 751.566 612.534C775.087 570.341 894.636 628.542 933.96 597.121C973.284 565.699 909.047 498.62 940.321 461.711C971.594 424.802 1056.38 459.304 1084.07 419.956C1111.77 380.608 1075.51 303.489 1073.26 272.84" stroke="url(#paint2_linear_1042_11296)" stroke-opacity="0.15" stroke-width="2" stroke-linecap="round"/>
<path d="M466.178 1375.43C450.041 1338.74 368.395 1242.3 388.72 1199.33C409.045 1156.36 542.797 1211.79 563.737 1169.18C584.677 1126.56 465.523 1035.8 489.232 994.784C512.94 953.772 639.679 1005.15 677.536 972.315C715.394 939.481 641.396 874.818 670.948 837.184C700.501 799.549 805.524 838.373 819.389 791.67C833.254 744.967 717.484 656.157 737.501 613.01C757.518 569.864 879.151 618.289 915.471 584.566C951.791 550.844 883.821 489.666 911.836 451.142C939.85 412.619 1025.62 440.311 1049.94 399.654C1074.26 358.997 1033.04 285.918 1028.59 255.988" stroke="url(#paint3_linear_1042_11296)" stroke-opacity="0.15" stroke-width="2" stroke-linecap="round"/>
<path d="M512.992 1382.78C494.475 1347.94 407.29 1259.22 424.108 1215.56C440.925 1171.9 576.269 1216.55 593.717 1173.2C611.164 1129.84 487.573 1049.43 507.855 1007.44C528.137 965.445 656.3 1006.63 691.069 971.641C725.837 936.648 648.478 878.568 674.744 839.468C701.009 800.367 806.939 830.817 817.143 783.959C827.347 737.101 707.22 658.365 723.723 614.549C740.225 570.733 863.161 609.397 896.355 573.643C929.549 537.889 858.362 482.791 883.053 442.93C907.744 403.069 993.959 423.997 1014.87 382.311C1035.78 340.625 989.979 271.893 983.429 242.836" stroke="url(#paint4_linear_1042_11296)" stroke-opacity="0.15" stroke-width="2" stroke-linecap="round"/>
<path d="M559.524 1386.44C538.809 1353.6 446.774 1272.89 460.095 1228.81C473.415 1184.73 609.501 1218.68 623.462 1174.86C637.423 1131.03 510.264 1061.13 527.107 1018.44C543.949 975.75 672.736 1006.83 704.306 969.948C735.876 933.069 655.719 881.711 678.645 841.421C701.57 801.132 807.753 823.29 814.349 776.558C820.946 729.827 697.31 661.314 710.31 617.109C723.31 572.903 846.782 601.883 876.751 564.373C906.721 526.862 832.839 477.979 854.163 437.058C875.488 396.137 961.628 410.389 979.111 367.952C996.593 325.515 946.629 261.401 938.081 233.361" stroke="url(#paint5_linear_1042_11296)" stroke-opacity="0.15" stroke-width="2" stroke-linecap="round"/>
<path d="M605.485 1386.48C582.766 1355.77 486.579 1283.29 496.435 1239.07C506.291 1194.85 642.29 1218.24 652.792 1174.22C663.295 1130.2 533.434 1070.89 546.847 1027.78C560.259 984.662 688.886 1005.76 717.173 967.277C745.459 928.79 663.067 884.244 682.623 843.041C702.179 801.839 807.977 815.838 811.043 769.506C814.108 723.173 687.804 664.966 697.337 620.645C706.869 576.324 830.128 595.756 856.798 556.767C883.468 517.777 807.413 475.202 825.353 433.497C843.292 391.792 928.849 399.494 942.908 356.581C956.967 313.669 903.269 254.406 892.837 227.518" stroke="url(#paint6_linear_1042_11296)" stroke-opacity="0.15" stroke-width="2" stroke-linecap="round"/>
<path d="M650.599 1383.01C626.075 1354.54 526.442 1290.46 532.886 1246.36C539.33 1202.27 674.437 1215.3 681.531 1171.36C688.624 1127.41 556.92 1078.7 566.933 1035.43C576.947 992.163 704.655 1003.49 729.597 963.672C754.538 923.859 670.471 886.169 686.651 844.328C702.83 802.487 807.628 808.507 807.258 762.836C806.887 717.165 678.753 669.276 684.872 625.107C690.992 580.938 813.313 591.013 836.632 550.824C859.951 510.636 782.245 474.418 796.802 432.201C811.358 389.985 895.842 391.303 906.505 348.186C917.168 305.068 860.175 250.851 847.983 225.237" stroke="url(#paint7_linear_1042_11296)" stroke-opacity="0.15" stroke-width="2" stroke-linecap="round"/>
<path d="M694.604 1376.16C668.481 1350.03 566.108 1294.44 569.214 1250.73C572.32 1207.02 705.76 1209.96 709.514 1166.35C713.267 1122.74 580.564 1084.57 587.231 1041.41C593.897 998.249 719.957 1000.04 741.514 959.185C763.07 918.326 677.886 887.492 690.703 845.283C703.52 803.073 806.726 801.339 803.035 756.58C799.343 711.821 670.201 674.197 672.983 630.437C675.766 586.678 796.452 587.644 816.39 546.535C836.328 505.425 757.488 475.571 768.687 433.112C779.885 390.652 862.828 385.789 870.143 342.729C877.457 299.67 817.617 250.656 803.794 226.427" stroke="url(#paint8_linear_1042_11296)" stroke-opacity="0.15" stroke-width="2" stroke-linecap="round"/>
<path d="M737.251 1366.06C709.737 1342.35 605.327 1295.32 605.187 1252.24C605.048 1209.16 736.079 1202.32 736.582 1159.3C737.084 1116.27 604.208 1088.51 607.6 1045.72C610.991 1002.92 734.704 995.498 752.861 953.871C771.017 912.244 685.26 888.222 694.75 845.908C704.24 803.595 805.292 794.376 798.412 750.765C791.533 707.154 662.187 679.678 661.727 636.576C661.267 593.474 779.651 585.629 796.203 543.875C812.754 502.121 733.289 478.597 741.174 436.156C749.059 393.715 830.018 382.905 834.051 340.159C838.085 297.412 775.85 253.722 760.534 230.975" stroke="url(#paint9_linear_1042_11296)" stroke-opacity="0.15" stroke-width="2" stroke-linecap="round"/>
<path d="M778.305 1352.9C749.613 1331.66 643.859 1293.17 640.586 1250.97C637.312 1208.76 765.231 1192.51 762.59 1150.3C759.949 1108.1 627.702 1090.58 627.909 1048.38C628.115 1006.19 748.821 989.91 763.583 947.79C778.346 905.671 692.55 888.374 698.769 846.213C704.988 804.052 803.353 787.658 793.434 745.418C783.515 703.178 654.749 685.67 651.158 643.461C647.568 601.252 763.02 584.941 776.201 542.815C789.381 500.688 709.787 483.421 714.424 441.252C719.061 399.084 797.618 382.592 798.458 340.405C799.297 298.218 735.122 259.931 718.455 238.753" stroke="url(#paint10_linear_1042_11296)" stroke-opacity="0.15" stroke-width="2" stroke-linecap="round"/>
<path d="M817.549 1336.84C787.892 1318.12 681.477 1288.11 675.196 1247C668.915 1205.88 793.062 1180.65 787.402 1139.49C781.741 1098.33 650.895 1090.79 648.026 1049.44C645.157 1008.09 762.233 983.346 773.63 941.005C785.027 898.664 699.708 887.963 702.732 846.203C705.755 804.443 800.935 781.219 788.142 740.556C775.349 699.893 647.914 692.115 641.323 651.022C634.732 609.929 746.66 585.543 756.506 543.309C766.353 501.075 687.113 489.953 688.586 448.301C690.058 406.648 765.824 384.771 763.575 343.377C761.326 301.982 695.663 269.143 677.791 249.608" stroke="url(#paint11_linear_1042_11296)" stroke-opacity="0.15" stroke-width="2" stroke-linecap="round"/>
<path d="M854.784 1318.08C824.374 1301.91 717.962 1280.26 708.818 1240.45C699.674 1200.64 819.432 1166.88 810.892 1126.98C802.352 1087.08 673.647 1089.22 667.827 1048.93C662.007 1008.64 774.875 975.881 782.956 933.581C791.037 891.28 706.694 887.01 706.616 845.888C706.538 804.766 798.071 775.092 782.581 736.196C767.091 697.301 641.71 698.958 632.263 659.189C622.817 619.421 730.669 587.389 737.239 545.307C743.809 503.225 665.388 498.099 663.799 457.196C662.21 416.292 734.826 389.35 729.61 348.97C724.395 308.591 657.691 281.206 638.765 263.373" stroke="url(#paint12_linear_1042_11296)" stroke-opacity="0.15" stroke-width="2" stroke-linecap="round"/>
<path d="M889.828 1296.83C858.877 1283.21 753.112 1269.76 741.262 1231.44C729.412 1193.13 844.213 1151.36 832.949 1112.92C821.684 1074.47 695.822 1085.93 687.192 1046.9C678.562 1007.88 786.69 967.593 791.524 925.588C796.359 883.583 713.466 885.538 710.397 845.281C707.329 805.024 794.791 769.309 776.794 732.352C758.798 695.396 636.155 706.141 624.013 667.891C611.87 629.64 715.139 590.43 718.51 548.748C721.881 507.067 644.725 507.754 640.193 467.82C635.661 427.887 704.8 396.224 696.755 357.067C688.71 317.91 621.407 295.95 601.578 279.867" stroke="url(#paint13_linear_1042_11296)" stroke-opacity="0.15" stroke-width="2" stroke-linecap="round"/>
<path d="M922.525 1273.32C891.239 1262.23 786.739 1256.76 772.354 1220.12C757.969 1183.48 867.297 1134.25 853.475 1097.44C839.653 1060.63 717.295 1081 706.009 1043.43C694.724 1005.86 797.627 958.562 799.303 917.096C800.98 875.631 719.988 883.575 714.057 844.395C708.125 805.215 791.134 763.896 770.831 729.033C750.528 694.169 631.27 713.607 616.602 677.051C601.935 640.495 700.161 594.606 700.429 553.564C700.696 512.522 625.228 518.806 617.887 480.049C610.546 441.292 675.915 405.272 665.193 367.531C654.471 329.79 586.998 313.192 566.421 298.892" stroke="url(#paint14_linear_1042_11296)" stroke-opacity="0.15" stroke-width="2" stroke-linecap="round"/>
<path d="M952.731 1247.76C921.314 1239.19 818.669 1241.43 801.93 1206.62C785.191 1171.82 888.582 1115.71 872.382 1080.7C856.182 1045.68 737.943 1074.51 724.169 1038.57C710.395 1002.63 807.64 948.872 806.266 908.179C804.891 867.486 726.224 881.147 717.571 843.244C708.918 805.34 787.133 758.877 764.733 726.241C742.333 693.606 627.06 721.296 610.051 686.595C593.042 651.894 685.813 599.852 683.091 559.676C680.368 519.499 606.984 531.135 596.984 493.748C586.983 456.361 648.324 416.364 635.089 380.217C621.854 344.069 554.629 332.735 533.455 320.24" stroke="url(#paint15_linear_1042_11296)" stroke-opacity="0.15" stroke-width="2" stroke-linecap="round"/>
<path d="M980.328 1220.4C948.977 1214.3 848.746 1223.95 829.844 1191.13C810.942 1158.3 907.988 1095.9 889.598 1062.84C871.209 1029.77 757.658 1066.56 741.574 1032.41C725.489 998.258 816.695 938.612 812.393 898.911C808.091 859.21 732.141 878.289 720.923 841.846C709.706 805.402 782.828 754.273 758.547 723.981C734.266 693.69 623.533 729.151 604.375 696.447C585.217 663.743 672.171 606.099 666.588 567.002C661.005 527.904 590.076 544.619 577.578 508.778C565.079 472.938 622.167 429.36 606.595 394.967C591.023 360.574 524.449 354.375 502.831 343.692" stroke="url(#paint16_linear_1042_11296)" stroke-opacity="0.15" stroke-width="2" stroke-linecap="round"/>
<path d="M1005.22 1191.48C974.123 1187.79 876.829 1204.51 855.964 1173.79C835.099 1143.07 925.447 1075.02 905.065 1044.03C884.683 1013.03 776.338 1057.25 758.131 1025.03C739.924 992.809 824.762 927.866 817.671 889.364C810.58 850.861 737.711 875.033 724.095 840.217C710.48 805.401 778.257 750.099 752.317 722.248C726.376 694.396 620.69 737.112 599.583 706.529C578.476 675.946 659.302 613.271 651.003 575.451C642.704 537.631 574.572 559.126 559.748 524.993C544.924 490.86 597.573 444.107 579.849 411.612C562.125 379.118 496.585 377.893 474.674 369.02" stroke="url(#paint17_linear_1042_11296)" stroke-opacity="0.15" stroke-width="2" stroke-linecap="round"/>
<path d="M1027.33 1161.25C996.67 1159.91 902.798 1183.31 880.176 1154.81C857.553 1126.3 940.908 1053.23 918.737 1024.42C896.567 995.608 793.892 1046.69 773.758 1016.52C753.624 986.356 831.82 916.726 822.094 879.612C812.368 842.498 742.908 871.414 727.073 838.377C711.238 805.34 773.46 746.371 746.086 721.035C718.712 695.699 618.526 745.121 595.677 716.766C572.828 688.41 647.268 621.287 636.411 584.928C625.554 548.569 560.528 574.525 543.562 542.243C526.596 509.961 574.654 460.445 554.973 429.975C535.291 399.505 471.15 403.069 449.091 395.988" stroke="url(#paint18_linear_1042_11296)" stroke-opacity="0.15" stroke-width="2" stroke-linecap="round"/>
<path d="M1046.6 1129.96C1016.55 1130.88 926.549 1160.56 902.38 1134.35C878.21 1108.14 954.334 1030.71 930.585 1004.17C906.836 977.641 810.241 1035 788.382 1006.99C766.523 978.979 837.858 905.281 825.662 869.73C813.467 834.18 747.711 867.47 729.843 836.346C711.975 805.222 768.479 743.098 739.898 720.335C711.317 697.572 617.034 753.125 592.654 727.083C568.274 701.041 636.122 630.064 622.876 595.334C609.63 560.603 547.991 590.68 529.073 560.375C510.155 530.071 553.509 478.21 532.07 449.873C510.631 421.536 448.23 429.673 426.167 424.357" stroke="url(#paint19_linear_1042_11296)" stroke-opacity="0.15" stroke-width="2" stroke-linecap="round"/>
<path d="M1063 1097.87C1033.73 1100.94 947.997 1136.45 922.495 1112.62C896.992 1088.78 965.706 1007.64 940.59 983.457C915.474 959.271 825.314 1022.29 801.937 996.523C778.56 970.759 842.868 893.619 828.38 859.789C813.891 825.96 752.098 863.239 732.392 834.143C712.686 805.048 763.353 740.286 733.793 720.132C704.232 699.979 616.198 761.066 590.502 737.406C564.806 713.746 625.907 639.516 610.453 606.563C594.998 573.611 536.992 607.453 516.32 579.234C495.648 551.016 534.218 497.229 511.228 471.114C488.237 444.999 427.894 457.473 405.965 453.884" stroke="url(#paint20_linear_1042_11296)" stroke-opacity="0.15" stroke-width="2" stroke-linecap="round"/>
<path d="M1076.53 1065.21C1048.18 1070.34 967.077 1111.22 940.457 1089.8C913.837 1068.39 975.019 984.21 948.751 962.426C922.482 940.641 839.054 1008.69 814.368 985.236C789.683 961.785 846.855 881.828 830.26 849.861C813.665 817.894 756.057 858.76 734.713 831.792C713.369 804.823 758.124 737.938 727.81 720.411C697.496 702.885 616.003 768.894 589.207 747.665C562.411 726.436 616.663 649.553 599.189 618.511C581.715 587.469 527.553 624.707 505.33 598.664C483.107 572.621 516.852 517.326 492.518 493.505C468.184 469.684 410.193 486.235 388.528 484.322" stroke="url(#paint21_linear_1042_11296)" stroke-opacity="0.15" stroke-width="2" stroke-linecap="round"/>
<path d="M1087.18 1032.25C1059.9 1039.31 983.739 1085.07 956.217 1066.1C928.694 1047.14 982.279 960.586 955.073 941.238C927.867 921.89 851.41 994.322 825.628 973.233C799.845 952.145 849.824 869.997 831.317 840.014C812.81 810.03 759.571 854.075 736.794 829.313C714.016 804.55 752.829 736.054 721.985 721.154C691.141 706.253 616.424 776.558 588.743 757.79C561.063 739.022 608.416 660.084 589.118 631.067C569.82 602.051 519.682 642.306 496.113 618.51C472.545 594.715 501.457 538.324 475.99 516.848C450.524 495.373 395.149 515.725 373.875 515.429" stroke="url(#paint22_linear_1042_11296)" stroke-opacity="0.15" stroke-width="2" stroke-linecap="round"/>
<path d="M1095 999.223C1068.9 1008.08 997.959 1058.22 969.748 1041.72C941.537 1025.23 987.516 936.943 959.585 920.048C931.655 903.153 862.351 979.321 835.683 960.626C809.014 941.931 851.795 858.208 831.577 830.313C811.358 802.417 762.637 849.223 738.633 826.728C714.628 804.232 747.511 734.63 716.356 722.336C685.2 710.042 617.439 784.009 589.088 767.714C560.737 751.42 601.191 671.017 580.271 644.121C559.351 617.226 513.379 660.111 488.673 638.616C463.968 617.121 488.073 560.04 461.685 540.945C435.297 521.85 382.776 545.708 362.011 546.961" stroke="url(#paint23_linear_1042_11296)" stroke-opacity="0.15" stroke-width="2" stroke-linecap="round"/>
<path d="M1100.02 966.361C1075.24 976.879 1009.72 1030.88 981.037 1016.85C952.348 1002.82 990.764 913.448 962.32 899.005C933.876 884.563 871.85 963.814 844.505 947.525C817.16 931.237 852.791 846.544 831.066 820.821C809.34 795.099 765.248 844.244 740.224 824.059C715.201 803.874 742.206 733.659 710.953 723.934C679.699 714.208 619.017 791.203 590.206 777.376C561.395 763.549 594.998 682.26 572.662 657.563C550.326 632.866 508.628 677.991 482.993 658.832C457.359 639.672 476.717 582.296 449.617 565.597C422.517 548.899 373.059 575.954 352.912 578.679" stroke="url(#paint24_linear_1042_11296)" stroke-opacity="0.15" stroke-width="2" stroke-linecap="round"/>
<path d="M1102.33 933.895C1078.95 945.935 1019.05 1003.28 990.086 991.687C961.126 980.095 992.076 890.263 963.325 878.254C934.573 866.245 879.893 947.93 852.078 934.044C824.264 920.157 852.84 835.082 829.816 811.599C806.793 788.117 767.401 839.178 741.566 821.329C715.73 803.479 736.953 733.131 705.806 725.92C674.659 718.709 621.124 798.099 592.06 786.716C562.996 775.333 589.843 693.72 566.299 671.281C542.754 648.841 505.404 695.814 479.048 679.007C452.692 662.2 467.395 604.911 439.789 590.607C412.183 576.304 365.966 606.237 346.539 610.35" stroke="url(#paint25_linear_1042_11296)" stroke-opacity="0.15" stroke-width="2" stroke-linecap="round"/>
<path d="M1102.01 902.043C1080.12 915.456 1025.95 975.614 996.919 966.425C967.888 957.235 991.519 867.544 962.661 857.934C933.802 848.323 886.48 931.799 858.398 920.293C830.316 908.787 851.979 823.898 827.867 802.703C803.755 781.509 769.101 834.067 742.659 818.559C716.216 803.051 731.788 733.032 700.944 728.265C670.101 723.498 623.727 804.658 594.61 795.679C565.492 786.7 585.724 705.308 561.18 685.166C536.636 665.024 503.674 713.455 476.8 699C449.926 684.545 460.095 627.71 432.186 615.782C404.276 603.855 361.45 636.338 342.835 641.748" stroke="url(#paint26_linear_1042_11296)" stroke-opacity="0.15" stroke-width="2" stroke-linecap="round"/>
<path d="M1099.16 871.015C1078.83 885.647 1030.48 948.093 1001.57 941.251C972.661 934.409 989.168 845.438 960.396 838.174C931.624 830.91 891.618 915.548 863.464 906.383C835.311 897.219 850.25 813.062 825.258 794.185C800.267 775.307 770.351 828.948 743.503 815.772C716.656 802.595 726.743 733.346 696.39 730.938C666.036 728.531 626.787 810.846 597.808 804.215C568.83 797.585 582.629 716.933 557.293 699.111C531.957 681.289 503.389 730.792 476.198 718.671C449.006 706.551 454.791 650.519 426.775 640.932C398.758 631.346 359.44 666.046 341.72 672.655" stroke="url(#paint27_linear_1042_11296)" stroke-opacity="0.15" stroke-width="2" stroke-linecap="round"/>
<path d="M1093.91 841.004C1075.2 856.701 1032.7 920.911 1004.1 916.348C975.491 911.784 985.113 824.083 956.612 819.099C928.111 814.115 895.329 899.301 867.292 892.425C839.256 885.548 847.701 802.641 822.037 786.092C796.373 769.543 771.161 823.861 744.104 812.989C717.048 802.117 721.852 734.056 692.165 733.908C662.478 733.76 630.263 816.633 601.608 812.28C572.952 807.926 580.541 728.51 554.619 713.012C528.697 697.515 504.497 747.711 477.182 737.891C449.868 728.07 451.443 673.172 423.51 665.875C395.577 658.578 359.854 695.158 343.102 702.865" stroke="url(#paint28_linear_1042_11296)" stroke-opacity="0.15" stroke-width="2" stroke-linecap="round"/>
<path d="M1086.39 812.192C1069.34 828.795 1032.68 894.256 1004.56 891.888C976.434 889.519 979.45 803.607 951.397 800.822C923.343 798.037 897.64 883.177 869.901 878.52C842.162 873.863 844.382 792.694 818.249 778.467C792.117 764.239 771.542 818.839 744.466 810.229C717.391 801.619 717.144 735.138 688.288 737.138C659.431 739.138 634.112 821.99 605.954 819.829C577.795 817.669 579.435 739.953 553.128 726.766C526.821 713.579 506.931 764.102 479.681 756.532C452.431 748.962 449.998 695.504 422.328 690.431C394.659 685.357 362.589 723.482 346.869 732.179" stroke="url(#paint29_linear_1042_11296)" stroke-opacity="0.15" stroke-width="2" stroke-linecap="round"/>
<path d="M1076.75 784.747C1061.39 802.099 1030.52 868.307 1003.04 868.036C975.561 867.765 972.29 784.126 944.849 783.447C917.408 782.767 898.594 867.293 871.323 864.773C844.052 862.252 840.35 783.276 813.949 771.347C787.548 759.418 771.509 813.92 744.597 807.513C717.685 801.106 712.649 736.571 684.773 740.595C656.897 744.619 638.291 826.896 610.793 826.83C583.295 826.764 579.28 751.183 552.784 740.277C526.288 729.37 510.62 779.863 483.614 774.479C456.607 769.095 450.387 717.363 423.154 714.433C395.921 711.503 367.532 750.836 352.895 760.416" stroke="url(#paint30_linear_1042_11296)" stroke-opacity="0.15" stroke-width="2" stroke-linecap="round"/>
<path d="M1065.15 758.82C1051.5 776.764 1026.32 843.232 999.635 844.951C972.953 846.67 963.748 765.751 937.074 767.07C910.399 768.389 898.238 851.761 871.595 851.282C844.953 850.803 835.666 774.44 809.189 764.769C782.712 755.097 771.079 809.137 744.505 804.861C717.93 800.585 708.39 738.329 681.633 744.244C654.875 750.159 642.754 831.333 616.068 833.252C589.382 835.17 580.036 762.124 553.541 753.452C527.046 744.78 515.483 794.903 488.891 791.626C462.299 788.349 452.534 738.602 425.898 737.723C399.263 736.844 374.553 777.056 361.041 787.407" stroke="url(#paint31_linear_1042_11296)" stroke-opacity="0.15" stroke-width="2" stroke-linecap="round"/>
<path d="M1051.76 734.547C1039.82 752.928 1020.19 819.186 994.449 822.775C968.703 826.363 953.949 748.572 928.181 751.773C902.414 754.973 896.63 836.683 870.765 838.138C844.899 839.593 830.393 766.224 804.025 758.755C777.658 751.287 770.273 804.518 744.199 802.287C718.126 800.056 704.391 740.384 678.874 748.046C653.358 755.709 647.454 835.285 621.719 839.068C595.984 842.85 581.66 772.702 555.347 766.203C529.034 759.704 521.435 809.134 495.416 807.873C469.398 806.611 456.345 759.083 430.458 760.15C404.57 761.217 383.51 801.984 371.155 812.993" stroke="url(#paint32_linear_1042_11296)" stroke-opacity="0.15" stroke-width="2" stroke-linecap="round"/>
<path d="M1036.77 712.046C1026.53 730.712 1012.28 796.313 987.599 801.643C962.916 806.973 943.023 732.674 918.29 737.63C893.558 742.586 893.838 822.16 868.885 825.431C843.932 828.702 824.598 758.67 798.516 753.333C772.434 747.996 769.112 800.096 743.693 799.812C718.274 799.527 700.672 742.708 676.504 751.968C652.336 761.228 652.346 838.743 627.688 844.261C603.029 849.778 584.102 782.852 558.143 778.451C532.184 774.049 528.381 822.481 503.085 823.133C477.788 823.784 461.722 778.68 436.72 781.577C411.718 784.475 394.251 825.485 383.075 837.039" stroke="url(#paint33_linear_1042_11296)" stroke-opacity="0.15" stroke-width="2" stroke-linecap="round"/>
<path d="M1020.36 691.417C1011.79 710.221 1002.72 774.742 979.21 781.677C955.702 788.611 931.103 718.127 907.52 724.702C883.938 731.278 889.932 808.279 866.015 813.24C842.098 818.202 818.347 751.807 792.718 748.517C767.089 745.227 767.621 795.895 742.997 797.448C718.373 799.001 697.248 745.27 674.522 755.972C651.796 766.673 657.381 841.701 633.91 848.815C610.439 855.929 587.306 792.512 561.863 790.118C536.42 787.725 536.223 834.877 511.785 837.327C487.347 839.777 468.552 797.276 444.56 801.879C420.568 806.481 406.612 847.432 396.625 859.42" stroke="url(#paint34_linear_1042_11296)" stroke-opacity="0.15" stroke-width="2" stroke-linecap="round"/>
<path d="M1002.72 672.744C995.786 691.545 991.654 754.59 969.419 762.985C947.185 771.381 918.331 704.988 895.999 713.041C873.666 721.095 884.997 795.126 862.225 801.643C839.452 808.159 811.713 745.66 786.693 744.321C761.672 742.981 765.828 791.94 742.127 795.211C718.427 798.483 694.137 748.042 672.929 760.024C651.721 772.005 662.514 844.158 640.328 852.724C618.143 861.29 591.214 801.626 566.438 801.14C541.662 800.655 544.86 846.266 521.404 850.392C497.947 854.517 476.718 814.768 453.848 820.943C430.978 827.118 420.424 867.721 411.629 880.031" stroke="url(#paint35_linear_1042_11296)" stroke-opacity="0.15" stroke-width="2" stroke-linecap="round"/>
<path d="M984.064 656.089C978.71 674.75 979.245 735.954 958.367 745.661C937.489 755.368 904.848 693.298 883.851 702.682C862.854 712.066 879.115 782.773 857.583 790.703C836.051 798.634 804.765 740.246 780.498 740.748C756.23 741.25 763.759 788.25 741.097 793.112C718.435 797.974 691.348 750.988 671.72 764.086C652.091 777.184 667.698 846.114 646.879 855.983C626.061 865.851 595.763 810.144 571.792 811.453C547.822 812.763 554.185 856.598 531.821 862.267C509.456 867.937 486.093 831.06 464.442 838.667C442.791 846.274 435.51 886.259 427.896 898.783" stroke="url(#paint36_linear_1042_11296)" stroke-opacity="0.15" stroke-width="2" stroke-linecap="round"/>
<path d="M964.579 641.501C960.751 659.894 965.656 718.923 946.203 729.788C926.751 740.653 890.797 683.092 871.207 693.654C851.616 704.216 872.38 771.288 852.169 780.485C831.957 789.683 797.577 735.578 774.192 737.803C750.808 740.027 761.445 784.847 739.923 791.164C718.401 797.482 688.891 754.079 670.887 768.127C652.883 782.175 672.888 847.58 653.504 858.596C634.121 869.613 600.885 818.024 577.846 821.007C554.806 823.99 564.091 865.838 542.914 872.913C521.737 879.989 496.545 846.075 476.196 854.969C455.846 863.864 451.687 902.974 445.238 915.607" stroke="url(#paint37_linear_1042_11296)" stroke-opacity="0.15" stroke-width="2" stroke-linecap="round"/>
<path d="M944.469 629.004C942.096 647.009 951.054 703.562 933.08 715.43C915.106 727.297 876.323 674.383 858.194 685.969C840.065 697.554 864.887 760.724 846.062 771.039C827.237 781.353 790.217 731.658 767.834 735.478C745.45 739.298 758.916 781.742 738.621 789.374C718.326 797.006 686.768 757.279 670.419 772.112C654.069 786.944 678.04 848.562 660.143 860.571C642.246 872.579 606.511 825.228 584.515 829.754C562.518 834.28 574.467 873.957 554.559 882.295C534.651 890.633 507.936 859.744 488.956 869.776C469.976 879.808 468.769 917.809 463.456 930.449" stroke="url(#paint38_linear_1042_11296)" stroke-opacity="0.15" stroke-width="2" stroke-linecap="round"/>
<path d="M923.938 618.609C922.941 636.115 935.612 689.927 919.155 702.639C902.698 715.352 861.569 667.179 844.942 679.631C828.316 692.083 856.735 751.131 839.348 762.41C821.96 773.688 782.76 728.488 761.481 733.768C740.202 739.047 756.204 778.952 737.209 787.752C718.214 796.553 684.986 760.559 670.305 776.011C655.623 791.462 683.113 849.076 666.74 861.92C650.367 874.763 612.571 831.727 591.715 837.659C570.859 843.591 585.203 880.939 566.631 890.392C548.059 899.845 520.126 872.015 502.569 883.032C485.012 894.05 486.568 930.726 482.358 943.277" stroke="url(#paint39_linear_1042_11296)" stroke-opacity="0.15" stroke-width="2" stroke-linecap="round"/>
<path d="M903.181 610.304C903.474 627.21 919.504 678.052 904.587 691.453C889.669 704.854 846.676 661.468 831.577 674.631C816.478 687.793 848.027 742.545 832.112 754.633C816.198 766.722 775.271 726.057 755.186 732.654C735.101 739.252 753.341 776.482 735.703 786.303C718.066 796.123 683.54 763.885 670.527 779.793C657.513 795.701 688.065 849.14 673.238 862.66C658.412 876.181 618.99 837.497 599.358 844.692C579.726 851.886 596.189 886.777 579.005 897.194C561.821 907.611 532.971 882.845 516.875 894.695C500.779 906.544 504.896 941.702 501.744 954.072" stroke="url(#paint40_linear_1042_11296)" stroke-opacity="0.15" stroke-width="2" stroke-linecap="round"/>
<path d="M882.395 604.066C883.883 620.28 902.905 667.96 889.536 681.894C876.167 695.828 831.783 657.231 818.223 670.949C804.663 684.667 838.867 734.995 824.447 747.739C810.026 760.483 767.822 724.353 749.005 732.122C730.187 739.891 750.36 774.342 734.124 785.031C717.887 795.721 682.431 767.226 671.069 783.431C659.707 799.636 692.86 848.774 679.587 862.817C666.313 876.859 625.696 842.524 607.356 850.834C589.017 859.144 607.316 891.475 591.558 902.705C575.799 913.935 546.326 892.21 531.715 904.738C517.103 917.267 523.566 950.735 521.422 962.839" stroke="url(#paint41_linear_1042_11296)" stroke-opacity="0.15" stroke-width="2" stroke-linecap="round"/>
<path d="M861.767 599.848C864.349 615.29 885.987 659.654 874.161 673.968C862.334 688.282 817.024 654.435 804.999 668.555C792.974 682.675 829.358 728.497 816.439 741.745C803.519 754.993 760.475 723.355 742.985 732.146C725.495 740.936 747.293 772.533 732.486 783.94C717.678 795.347 681.649 770.55 671.909 786.899C662.169 803.248 697.461 848.004 685.733 862.414C674.006 876.825 632.612 846.796 615.618 856.071C598.625 865.346 618.476 895.044 604.165 906.936C589.855 918.827 560.045 900.096 546.927 913.15C533.809 926.205 542.391 957.837 541.197 969.596" stroke="url(#paint42_linear_1042_11296)" stroke-opacity="0.15" stroke-width="2" stroke-linecap="round"/>
<path d="M841.479 597.591C845.05 612.19 868.922 653.123 858.618 667.668C848.314 682.213 802.528 653.033 792.02 667.406C781.512 681.78 819.605 723.059 808.179 736.662C796.753 750.264 753.293 723.037 737.174 732.698C721.055 742.358 744.172 771.057 730.808 783.031C717.443 795.005 681.186 773.829 673.025 790.173C664.863 806.518 701.834 846.854 691.632 861.485C681.43 876.116 639.664 850.312 624.055 860.4C608.446 870.489 629.564 897.508 616.709 909.911C603.855 922.314 573.984 906.502 562.354 919.933C550.724 933.364 561.19 963.036 560.884 974.379" stroke="url(#paint43_linear_1042_11296)" stroke-opacity="0.15" stroke-width="2" stroke-linecap="round"/>
<path d="M821.707 597.219C826.157 610.918 851.878 648.343 843.063 662.975C834.249 677.607 788.419 652.971 779.398 667.455C770.376 681.938 809.713 718.683 799.759 732.494C789.805 746.305 746.338 723.371 731.619 733.748C716.9 744.125 741.031 769.911 729.109 782.304C717.187 794.697 681.032 777.033 674.393 793.234C667.754 809.434 705.951 845.358 697.24 860.065C688.53 874.772 646.781 853.077 632.58 863.827C618.379 874.578 640.48 898.9 629.076 911.666C617.672 924.432 588.002 911.443 577.841 925.104C567.679 938.766 579.79 966.381 580.303 977.243" stroke="url(#paint44_linear_1042_11296)" stroke-opacity="0.15" stroke-width="2" stroke-linecap="round"/>
<path d="M802.615 598.64C807.83 611.392 835.018 645.268 827.648 659.85C820.277 674.433 774.814 654.181 767.235 668.636C759.656 683.091 799.784 715.353 791.268 729.233C782.752 743.113 739.663 724.318 726.358 735.26C713.054 746.202 737.9 769.088 727.406 781.755C716.912 794.421 681.173 780.135 675.988 796.059C670.803 811.983 709.786 843.543 702.519 858.189C695.253 872.836 653.891 855.101 641.107 866.362C628.323 877.623 651.129 899.258 641.156 912.243C631.182 925.229 601.959 914.942 593.235 928.694C584.511 942.446 598.021 967.929 599.28 978.254" stroke="url(#paint45_linear_1042_11296)" stroke-opacity="0.15" stroke-width="2" stroke-linecap="round"/>
<path d="M784.355 601.751C790.222 613.521 818.499 643.844 812.514 658.247C806.529 672.65 761.82 656.588 755.628 670.884C749.435 685.18 789.917 713.053 782.792 726.868C775.667 740.683 733.32 725.84 721.429 737.197C709.538 748.554 734.809 768.582 725.716 781.382C716.622 794.182 681.59 783.111 677.781 798.636C673.972 814.161 713.314 841.445 707.432 855.902C701.551 870.358 660.924 856.402 649.551 868.026C638.178 879.65 661.418 898.631 652.843 911.698C644.268 924.765 615.722 917.039 608.39 930.747C601.058 944.456 615.721 967.758 617.65 977.497" stroke="url(#paint46_linear_1042_11296)" stroke-opacity="0.15" stroke-width="2" stroke-linecap="round"/>
<path d="M767.069 606.434C773.471 617.199 802.468 644.003 797.801 658.105C793.133 672.206 749.536 660.107 744.664 674.122C739.792 688.137 780.206 711.752 774.415 725.376C768.623 739 727.356 727.891 716.864 739.517C706.372 751.142 731.787 768.381 724.054 781.179C716.321 793.978 682.267 785.936 679.745 800.95C677.223 815.964 716.514 839.101 711.948 853.246C707.383 867.391 667.812 857.004 657.831 868.846C647.85 880.689 671.262 897.077 664.04 910.092C656.817 923.108 629.16 917.785 623.164 931.322C617.168 944.859 632.739 965.956 635.259 975.07" stroke="url(#paint47_linear_1042_11296)" stroke-opacity="0.15" stroke-width="2" stroke-linecap="round"/>
<path d="M750.886 612.561C757.71 622.308 787.068 645.661 783.639 659.349C780.21 673.038 738.055 664.645 734.426 678.265C730.797 691.885 770.748 711.413 766.22 724.728C761.692 738.042 721.814 730.423 712.692 742.176C703.571 753.929 728.862 768.471 722.437 781.141C716.012 793.811 683.184 788.589 681.852 802.99C680.519 817.392 719.372 836.546 716.042 850.268C712.713 863.99 674.492 856.935 665.87 868.858C657.248 880.78 680.582 894.657 674.656 907.496C668.73 920.336 642.154 917.24 637.426 930.487C632.699 943.734 648.935 962.624 651.964 971.082" stroke="url(#paint48_linear_1042_11296)" stroke-opacity="0.15" stroke-width="2" stroke-linecap="round"/>
<path d="M735.922 619.993C743.053 628.723 772.429 648.724 770.15 661.897C767.872 675.071 727.456 670.1 724.983 683.223C722.511 696.346 761.626 711.99 758.283 724.887C754.94 737.785 716.73 733.386 708.938 745.13C701.145 756.874 726.06 768.838 720.88 781.258C715.699 793.679 684.318 791.051 684.07 804.751C683.822 818.45 721.874 833.818 719.692 847.016C717.509 860.215 680.905 856.232 673.596 868.102C666.287 879.971 689.306 891.443 684.609 903.989C679.912 916.535 654.586 915.477 651.05 928.324C647.513 941.171 664.18 957.878 667.635 965.655" stroke="url(#paint49_linear_1042_11296)" stroke-opacity="0.15" stroke-width="2" stroke-linecap="round"/>
<path d="M722.276 628.581C729.603 636.304 758.672 653.086 757.447 665.653C756.223 678.219 717.809 676.367 716.399 688.9C714.989 701.433 752.925 713.429 750.679 725.81C748.433 738.191 712.137 736.723 705.62 748.33C699.102 759.936 723.406 769.46 719.396 781.521C715.386 793.582 685.645 793.303 686.371 806.223C687.097 819.144 724.011 830.955 722.879 843.538C721.748 856.122 686.993 854.933 680.94 866.624C674.887 878.314 697.371 887.508 693.825 899.653C690.279 911.799 666.352 912.574 663.92 924.922C661.489 937.269 678.355 951.838 682.154 958.921" stroke="url(#paint50_linear_1042_11296)" stroke-opacity="0.15" stroke-width="2" stroke-linecap="round"/>
<path d="M710.034 638.172C717.45 644.91 745.904 658.635 745.631 670.515C745.358 682.395 709.175 683.336 708.725 695.197C708.276 707.059 744.719 715.672 743.474 727.45C742.23 739.227 708.06 740.381 702.753 751.729C697.445 763.078 720.921 770.321 717.998 781.922C715.075 793.522 687.142 795.334 688.724 807.41C690.307 819.487 725.778 827.998 725.593 839.887C725.409 851.777 692.706 853.085 687.84 864.48C682.974 875.875 704.718 882.936 702.237 894.583C699.756 906.229 677.352 908.626 675.931 920.385C674.51 932.144 691.357 944.642 695.416 951.025" stroke="url(#paint51_linear_1042_11296)" stroke-opacity="0.15" stroke-width="2" stroke-linecap="round"/>
<path d="M699.266 648.605C706.668 654.39 734.223 665.244 734.794 676.37C735.364 687.496 701.601 690.889 702.005 702.01C702.409 713.131 737.078 718.652 736.733 729.75C736.388 740.847 704.522 744.3 700.348 755.278C696.175 766.257 718.626 771.398 716.699 782.446C714.773 793.495 688.783 797.13 691.101 808.31C693.42 819.49 727.174 824.983 727.827 836.112C728.481 847.24 697.997 850.736 694.239 861.727C690.482 872.719 711.301 877.809 709.791 888.871C708.281 899.932 687.501 903.729 686.99 914.821C686.478 925.914 703.097 936.428 707.336 942.114" stroke="url(#paint52_linear_1042_11296)" stroke-opacity="0.15" stroke-width="2" stroke-linecap="round"/>
<path d="M690.024 659.714C697.314 664.586 723.712 672.783 725.012 683.099C726.313 693.415 695.122 698.909 696.267 709.232C697.412 719.555 730.063 722.296 730.51 732.649C730.956 743.002 701.535 748.42 698.41 758.927C695.285 769.434 716.537 772.667 715.508 783.083C714.479 793.5 690.54 798.681 693.471 808.927C696.402 819.173 728.199 821.951 729.578 832.264C730.956 842.577 702.824 847.938 700.087 858.429C697.35 868.919 717.08 872.217 716.439 882.617C715.799 893.017 696.721 897.989 697.012 908.349C697.303 918.708 713.498 927.345 717.837 932.344" stroke="url(#paint53_linear_1042_11296)" stroke-opacity="0.15" stroke-width="2" stroke-linecap="round"/>
<path d="M682.347 671.331C689.432 675.341 714.442 681.115 716.356 690.578C718.27 700.042 689.764 707.276 691.535 716.756C693.306 726.236 723.73 726.528 724.856 736.084C725.982 745.641 699.111 752.682 696.939 762.627C694.768 772.572 714.671 774.102 714.435 783.819C714.199 793.536 692.388 799.981 695.807 809.268C699.226 818.554 728.862 818.938 730.848 828.393C732.834 837.848 707.152 844.749 705.339 854.652C703.527 864.555 722.024 866.251 722.147 875.926C722.269 885.6 704.945 891.517 705.927 901.09C706.91 910.663 722.501 917.547 726.863 921.877" stroke="url(#paint54_linear_1042_11296)" stroke-opacity="0.15" stroke-width="2" stroke-linecap="round"/>
<path d="M676.253 683.285C683.049 686.492 706.467 690.096 708.876 698.676C711.286 707.257 685.54 715.866 687.819 724.472C690.097 733.078 718.124 731.265 719.814 739.985C721.504 748.705 697.25 757.025 695.931 766.328C694.613 775.631 713.039 775.679 713.486 784.64C713.934 793.601 694.296 801.026 698.079 809.34C701.862 817.655 729.169 815.981 731.644 824.549C734.119 833.117 710.95 841.227 709.959 850.466C708.968 859.706 726.111 860.002 726.886 868.9C727.661 877.797 712.117 884.429 713.677 893.174C715.236 901.92 730.059 907.189 734.371 910.877" stroke="url(#paint55_linear_1042_11296)" stroke-opacity="0.15" stroke-width="2" stroke-linecap="round"/>
<path d="M671.748 695.407C678.178 697.876 699.83 699.58 702.615 707.26C705.401 714.941 682.451 724.559 685.118 732.272C687.786 739.984 713.283 736.423 715.42 744.279C717.558 752.136 695.951 761.389 695.378 769.983C694.805 778.577 711.652 777.369 712.669 785.53C713.687 793.691 696.24 801.813 700.263 809.157C704.286 816.5 729.135 813.115 731.98 820.779C734.824 828.444 714.195 837.431 713.917 845.945C713.638 854.459 729.33 853.565 730.643 861.646C731.955 869.727 718.197 876.845 720.217 884.733C722.236 892.622 736.145 896.432 740.337 899.511" stroke="url(#paint56_linear_1042_11296)" stroke-opacity="0.15" stroke-width="2" stroke-linecap="round"/>
<path d="M668.819 707.529C674.816 709.335 694.559 709.421 697.602 716.196C700.645 722.971 680.486 733.238 683.424 740.05C686.363 746.862 709.238 741.916 711.705 748.895C714.172 755.873 695.207 765.718 695.266 773.548C695.326 781.378 710.518 779.147 711.99 786.478C713.463 793.808 698.193 802.346 702.335 808.733C706.477 815.12 728.776 810.377 731.872 817.133C734.967 823.89 716.87 833.428 717.191 841.165C717.512 848.902 731.679 847.035 733.413 854.272C735.147 861.51 723.154 868.89 725.516 875.906C727.878 882.922 740.745 885.439 744.752 887.948" stroke="url(#paint57_linear_1042_11296)" stroke-opacity="0.15" stroke-width="2" stroke-linecap="round"/>
<path d="M667.437 719.485C672.939 720.706 690.665 719.466 693.848 725.344C697.031 731.222 679.623 741.781 682.714 747.699C685.806 753.617 706.007 747.652 708.687 753.751C711.367 759.85 695.001 769.951 695.577 776.975C696.153 783.998 709.639 780.983 711.45 787.464C713.26 793.945 700.124 802.627 704.268 808.083C708.411 813.539 728.11 807.794 731.338 813.652C734.567 819.51 718.961 829.277 719.765 836.2C720.569 843.123 733.159 840.502 735.199 846.883C737.238 853.263 726.966 860.687 729.554 866.826C732.142 872.965 743.858 874.366 747.622 876.351" stroke="url(#paint58_linear_1042_11296)" stroke-opacity="0.15" stroke-width="2" stroke-linecap="round"/>
<path d="M667.558 731.116C672.516 731.835 688.147 729.569 691.356 734.569C694.565 739.57 679.829 750.077 682.959 755.119C686.089 760.162 703.604 753.543 706.381 758.773C709.158 764.003 695.317 774.035 696.29 780.223C697.262 786.411 709.019 782.85 711.051 788.476C713.083 794.101 702.01 802.663 706.043 807.226C710.075 811.789 727.158 805.4 730.406 810.38C733.654 815.36 720.463 825.046 721.632 831.13C722.801 837.214 733.789 834.061 736.017 839.583C738.245 845.104 729.628 852.362 732.327 857.633C735.026 862.905 745.503 863.375 748.971 864.886" stroke="url(#paint59_linear_1042_11296)" stroke-opacity="0.15" stroke-width="2" stroke-linecap="round"/>
<path d="M669.124 742.264C673.497 742.571 686.99 739.579 690.114 743.735C693.238 747.89 681.061 758.014 684.119 762.211C687.178 766.408 702.032 759.497 704.794 763.88C707.557 768.264 696.129 777.915 697.379 783.252C698.63 788.588 708.657 784.719 710.795 789.496C712.933 794.273 703.826 802.462 707.641 806.182C711.455 809.903 725.948 803.219 729.105 807.354C732.262 811.489 721.38 820.796 722.794 826.029C724.209 831.262 733.592 827.799 735.894 832.472C738.197 837.146 731.148 844.038 733.845 848.462C736.542 852.887 745.715 852.618 748.839 853.712" stroke="url(#paint60_linear_1042_11296)" stroke-opacity="0.15" stroke-width="2" stroke-linecap="round"/>
<path d="M672.058 752.784C675.816 752.768 687.159 749.354 690.094 752.708C693.028 756.061 683.263 765.488 686.143 768.882C689.024 772.275 701.282 765.424 703.922 768.995C706.562 772.567 697.407 781.543 698.814 786.025C700.222 790.507 708.548 786.562 710.678 790.51C712.809 794.458 705.545 802.035 709.042 804.973C712.539 807.911 724.502 801.278 727.464 804.612C730.425 807.946 721.715 816.593 723.256 820.976C724.798 825.359 732.598 821.803 734.863 825.651C737.128 829.5 731.541 835.839 734.127 839.45C736.713 843.061 744.537 842.248 747.277 842.984" stroke="url(#paint61_linear_1042_11296)" stroke-opacity="0.15" stroke-width="2" stroke-linecap="round"/>
<path d="M676.275 762.536C679.397 762.29 688.613 758.753 691.259 761.358C693.905 763.964 686.371 772.402 688.975 775.044C691.579 777.686 701.342 771.235 703.757 774.04C706.171 776.845 699.117 784.87 700.564 788.508C702.01 792.146 708.686 788.353 710.7 791.502C712.715 794.651 707.146 801.398 710.234 803.623C713.321 805.849 722.854 799.597 725.52 802.185C728.187 804.773 721.483 812.497 723.034 816.044C724.586 819.592 730.849 816.154 732.969 819.213C735.089 822.271 730.837 827.884 733.209 830.725C735.582 833.567 742.034 832.408 744.356 832.851" stroke="url(#paint62_linear_1042_11296)" stroke-opacity="0.15" stroke-width="2" stroke-linecap="round"/>
<path d="M681.675 771.391C684.151 771.01 691.294 767.641 693.559 769.563C695.825 771.485 690.315 778.664 692.549 780.617C694.782 782.57 702.189 776.845 704.282 778.94C706.374 781.035 701.223 787.855 702.592 790.672C703.962 793.488 709.063 790.067 710.857 792.46C712.651 794.853 708.608 800.565 711.203 802.157C713.799 803.75 721.033 798.197 723.314 800.104C725.595 802.01 720.704 808.57 722.152 811.308C723.6 814.046 728.393 810.932 730.266 813.247C732.138 815.561 729.079 820.291 731.14 822.417C733.201 824.543 738.28 823.237 740.159 823.452" stroke="url(#paint63_linear_1042_11296)" stroke-opacity="0.15" stroke-width="2" stroke-linecap="round"/>
<path d="M688.144 779.23C689.975 778.807 695.13 775.891 696.931 777.202C698.732 778.514 695.01 784.189 696.79 785.526C698.569 786.863 703.791 782.169 705.472 783.62C707.154 785.07 703.679 790.457 704.861 792.488C706.042 794.518 709.666 791.676 711.141 793.366C712.616 795.056 709.91 799.553 711.939 800.6C713.969 801.647 719.071 797.092 720.883 798.391C722.695 799.69 719.401 804.868 720.637 806.836C721.872 808.803 725.284 806.208 726.813 807.835C728.342 809.462 726.317 813.169 727.977 814.645C729.637 816.121 733.362 814.861 734.78 814.918" stroke="url(#paint64_linear_1042_11296)" stroke-opacity="0.15" stroke-width="2" stroke-linecap="round"/>
<path d="M695.56 785.947C696.756 785.576 700.039 783.382 701.301 784.165C702.564 784.948 700.369 788.905 701.618 789.705C702.867 790.506 706.107 787.128 707.297 788.009C708.486 788.89 706.443 792.644 707.328 793.935C708.214 795.227 710.483 793.158 711.547 794.209C712.611 795.26 711.034 798.383 712.435 798.979C713.836 799.574 717.003 796.294 718.272 797.068C719.541 797.842 717.607 801.448 718.526 802.695C719.444 803.942 721.584 802.048 722.681 803.054C723.778 804.06 722.615 806.625 723.791 807.524C724.968 808.423 727.383 807.401 728.328 807.369" stroke="url(#paint65_linear_1042_11296)" stroke-opacity="0.15" stroke-width="2" stroke-linecap="round"/>
<path d="M703.788 791.447C704.371 791.218 705.927 790.002 706.585 790.346C707.244 790.69 706.296 792.744 706.949 793.097C707.601 793.45 709.091 791.646 709.717 792.041C710.343 792.436 709.463 794.383 709.952 794.995C710.442 795.606 711.497 794.49 712.066 794.975C712.636 795.459 711.965 797.075 712.686 797.32C713.406 797.565 714.864 795.812 715.525 796.151C716.187 796.49 715.356 798.36 715.86 798.947C716.365 799.535 717.361 798.511 717.946 798.972C718.53 799.433 718.045 800.756 718.665 801.16C719.285 801.565 720.451 800.966 720.921 800.915" stroke="url(#paint66_linear_1042_11296)" stroke-opacity="0.15" stroke-width="2" stroke-linecap="round"/>
<defs>
<linearGradient id="paint0_linear_1042_11296" x1="44657.9" y1="-46837.2" x2="59072.3" y2="-33498.3" gradientUnits="userSpaceOnUse">
<stop offset="0.45" stop-color="#1F89DB"/>
<stop offset="1" stop-color="#F42A8B"/>
</linearGradient>
<linearGradient id="paint1_linear_1042_11296" x1="40405.7" y1="-49205.4" x2="55539.7" y2="-37153.9" gradientUnits="userSpaceOnUse">
<stop offset="0.45" stop-color="#1F89DB"/>
<stop offset="1" stop-color="#F42A8B"/>
</linearGradient>
<linearGradient id="paint2_linear_1042_11296" x1="36047.4" y1="-51209.4" x2="51790.7" y2="-40477.8" gradientUnits="userSpaceOnUse">
<stop offset="0.45" stop-color="#1F89DB"/>
<stop offset="1" stop-color="#F42A8B"/>
</linearGradient>
<linearGradient id="paint3_linear_1042_11296" x1="31613.4" y1="-52846.8" x2="47854.9" y2="-43458.1" gradientUnits="userSpaceOnUse">
<stop offset="0.45" stop-color="#1F89DB"/>
<stop offset="1" stop-color="#F42A8B"/>
</linearGradient>
<linearGradient id="paint4_linear_1042_11296" x1="27133.7" y1="-54117.7" x2="43762.4" y2="-46085.9" gradientUnits="userSpaceOnUse">
<stop offset="0.45" stop-color="#1F89DB"/>
<stop offset="1" stop-color="#F42A8B"/>
</linearGradient>
<linearGradient id="paint5_linear_1042_11296" x1="22637.9" y1="-55024.4" x2="39543.4" y2="-48354.6" gradientUnits="userSpaceOnUse">
<stop offset="0.45" stop-color="#1F89DB"/>
<stop offset="1" stop-color="#F42A8B"/>
</linearGradient>
<linearGradient id="paint6_linear_1042_11296" x1="18154.9" y1="-55571.7" x2="35228.3" y2="-50260.1" gradientUnits="userSpaceOnUse">
<stop offset="0.45" stop-color="#1F89DB"/>
<stop offset="1" stop-color="#F42A8B"/>
</linearGradient>
<linearGradient id="paint7_linear_1042_11296" x1="13713" y1="-55766.6" x2="30847.5" y2="-51801" gradientUnits="userSpaceOnUse">
<stop offset="0.45" stop-color="#1F89DB"/>
<stop offset="1" stop-color="#F42A8B"/>
</linearGradient>
<linearGradient id="paint8_linear_1042_11296" x1="9339.27" y1="-55618.3" x2="26430.9" y2="-52978.2" gradientUnits="userSpaceOnUse">
<stop offset="0.45" stop-color="#1F89DB"/>
<stop offset="1" stop-color="#F42A8B"/>
</linearGradient>
<linearGradient id="paint9_linear_1042_11296" x1="5059.84" y1="-55138.1" x2="22007.9" y2="-53795.1" gradientUnits="userSpaceOnUse">
<stop offset="0.45" stop-color="#1F89DB"/>
<stop offset="1" stop-color="#F42A8B"/>
</linearGradient>
<linearGradient id="paint10_linear_1042_11296" x1="899.444" y1="-54339.2" x2="17607.3" y2="-54257.3" gradientUnits="userSpaceOnUse">
<stop offset="0.45" stop-color="#1F89DB"/>
<stop offset="1" stop-color="#F42A8B"/>
</linearGradient>
<linearGradient id="paint11_linear_1042_11296" x1="-3118.61" y1="-53236.6" x2="13257" y2="-54372.8" gradientUnits="userSpaceOnUse">
<stop offset="0.45" stop-color="#1F89DB"/>
<stop offset="1" stop-color="#F42A8B"/>
</linearGradient>
<linearGradient id="paint12_linear_1042_11296" x1="-6972.59" y1="-51846.9" x2="8983.64" y2="-54151.7" gradientUnits="userSpaceOnUse">
<stop offset="0.45" stop-color="#1F89DB"/>
<stop offset="1" stop-color="#F42A8B"/>
</linearGradient>
<linearGradient id="paint13_linear_1042_11296" x1="-10642.4" y1="-50188.5" x2="4812.9" y2="-53606.1" gradientUnits="userSpaceOnUse">
<stop offset="0.45" stop-color="#1F89DB"/>
<stop offset="1" stop-color="#F42A8B"/>
</linearGradient>
<linearGradient id="paint14_linear_1042_11296" x1="-14109.9" y1="-48280.8" x2="768.933" y2="-52750.1" gradientUnits="userSpaceOnUse">
<stop offset="0.45" stop-color="#1F89DB"/>
<stop offset="1" stop-color="#F42A8B"/>
</linearGradient>
<linearGradient id="paint15_linear_1042_11296" x1="-17358.6" y1="-46144.7" x2="-3125.6" y2="-51599.4" gradientUnits="userSpaceOnUse">
<stop offset="0.45" stop-color="#1F89DB"/>
<stop offset="1" stop-color="#F42A8B"/>
</linearGradient>
<linearGradient id="paint16_linear_1042_11296" x1="-20374.1" y1="-43801.9" x2="-6849.68" y2="-50171.5" gradientUnits="userSpaceOnUse">
<stop offset="0.45" stop-color="#1F89DB"/>
<stop offset="1" stop-color="#F42A8B"/>
</linearGradient>
<linearGradient id="paint17_linear_1042_11296" x1="-23144" y1="-41275.1" x2="-10384" y2="-48485.3" gradientUnits="userSpaceOnUse">
<stop offset="0.45" stop-color="#1F89DB"/>
<stop offset="1" stop-color="#F42A8B"/>
</linearGradient>
<linearGradient id="paint18_linear_1042_11296" x1="-25658.1" y1="-38587.7" x2="-13711.3" y2="-46561" gradientUnits="userSpaceOnUse">
<stop offset="0.45" stop-color="#1F89DB"/>
<stop offset="1" stop-color="#F42A8B"/>
</linearGradient>
<linearGradient id="paint19_linear_1042_11296" x1="-27907.9" y1="-35763.5" x2="-16816" y2="-44419.8" gradientUnits="userSpaceOnUse">
<stop offset="0.45" stop-color="#1F89DB"/>
<stop offset="1" stop-color="#F42A8B"/>
</linearGradient>
<linearGradient id="paint20_linear_1042_11296" x1="-29887.5" y1="-32826.5" x2="-19684.7" y2="-42084.1" gradientUnits="userSpaceOnUse">
<stop offset="0.45" stop-color="#1F89DB"/>
<stop offset="1" stop-color="#F42A8B"/>
</linearGradient>
<linearGradient id="paint21_linear_1042_11296" x1="-31592.8" y1="-29801.2" x2="-22305.9" y2="-39576.9" gradientUnits="userSpaceOnUse">
<stop offset="0.45" stop-color="#1F89DB"/>
<stop offset="1" stop-color="#F42A8B"/>
</linearGradient>
<linearGradient id="paint22_linear_1042_11296" x1="-33021.8" y1="-26711.7" x2="-24670.5" y2="-36921.9" gradientUnits="userSpaceOnUse">
<stop offset="0.45" stop-color="#1F89DB"/>
<stop offset="1" stop-color="#F42A8B"/>
</linearGradient>
<linearGradient id="paint23_linear_1042_11296" x1="-34174.6" y1="-23582" x2="-26771.3" y2="-34143" gradientUnits="userSpaceOnUse">
<stop offset="0.45" stop-color="#1F89DB"/>
<stop offset="1" stop-color="#F42A8B"/>
</linearGradient>
<linearGradient id="paint24_linear_1042_11296" x1="-35053.5" y1="-20435.8" x2="-28603.2" y2="-31264.5" gradientUnits="userSpaceOnUse">
<stop offset="0.45" stop-color="#1F89DB"/>
<stop offset="1" stop-color="#F42A8B"/>
</linearGradient>
<linearGradient id="paint25_linear_1042_11296" x1="-35662.5" y1="-17296" x2="-30163.3" y2="-28310.8" gradientUnits="userSpaceOnUse">
<stop offset="0.45" stop-color="#1F89DB"/>
<stop offset="1" stop-color="#F42A8B"/>
</linearGradient>
<linearGradient id="paint26_linear_1042_11296" x1="-36007.6" y1="-14185.2" x2="-31451" y2="-25306" gradientUnits="userSpaceOnUse">
<stop offset="0.45" stop-color="#1F89DB"/>
<stop offset="1" stop-color="#F42A8B"/>
</linearGradient>
<linearGradient id="paint27_linear_1042_11296" x1="-36096.6" y1="-11124.7" x2="-32467.4" y2="-22273.9" gradientUnits="userSpaceOnUse">
<stop offset="0.45" stop-color="#1F89DB"/>
<stop offset="1" stop-color="#F42A8B"/>
</linearGradient>
<linearGradient id="paint28_linear_1042_11296" x1="-35939" y1="-8135.05" x2="-33215.8" y2="-19237.8" gradientUnits="userSpaceOnUse">
<stop offset="0.45" stop-color="#1F89DB"/>
<stop offset="1" stop-color="#F42A8B"/>
</linearGradient>
<linearGradient id="paint29_linear_1042_11296" x1="-35545.9" y1="-5235.58" x2="-33701.6" y2="-16220.5" gradientUnits="userSpaceOnUse">
<stop offset="0.45" stop-color="#1F89DB"/>
<stop offset="1" stop-color="#F42A8B"/>
</linearGradient>
<linearGradient id="paint30_linear_1042_11296" x1="-34929.8" y1="-2444.36" x2="-33931.6" y2="-13243.9" gradientUnits="userSpaceOnUse">
<stop offset="0.45" stop-color="#1F89DB"/>
<stop offset="1" stop-color="#F42A8B"/>
</linearGradient>
<linearGradient id="paint31_linear_1042_11296" x1="-34104.8" y1="221.905" x2="-33914.9" y2="-10328.9" gradientUnits="userSpaceOnUse">
<stop offset="0.45" stop-color="#1F89DB"/>
<stop offset="1" stop-color="#F42A8B"/>
</linearGradient>
<linearGradient id="paint32_linear_1042_11296" x1="-33085.9" y1="2747.97" x2="-33662" y2="-7495.18" gradientUnits="userSpaceOnUse">
<stop offset="0.45" stop-color="#1F89DB"/>
<stop offset="1" stop-color="#F42A8B"/>
</linearGradient>
<linearGradient id="paint33_linear_1042_11296" x1="-31889.4" y1="5120.17" x2="-33184.9" y2="-4761.48" gradientUnits="userSpaceOnUse">
<stop offset="0.45" stop-color="#1F89DB"/>
<stop offset="1" stop-color="#F42A8B"/>
</linearGradient>
<linearGradient id="paint34_linear_1042_11296" x1="-30532.4" y1="7326.47" x2="-32497.2" y2="-2144.99" gradientUnits="userSpaceOnUse">
<stop offset="0.45" stop-color="#1F89DB"/>
<stop offset="1" stop-color="#F42A8B"/>
</linearGradient>
<linearGradient id="paint35_linear_1042_11296" x1="-29033" y1="9356.51" x2="-31613.6" y2="338.517" gradientUnits="userSpaceOnUse">
<stop offset="0.45" stop-color="#1F89DB"/>
<stop offset="1" stop-color="#F42A8B"/>
</linearGradient>
<linearGradient id="paint36_linear_1042_11296" x1="-27409.6" y1="11201.7" x2="-30550.1" y2="2674.81" gradientUnits="userSpaceOnUse">
<stop offset="0.45" stop-color="#1F89DB"/>
<stop offset="1" stop-color="#F42A8B"/>
</linearGradient>
<linearGradient id="paint37_linear_1042_11296" x1="-25681.3" y1="12855.2" x2="-29323.7" y2="4851.29" gradientUnits="userSpaceOnUse">
<stop offset="0.45" stop-color="#1F89DB"/>
<stop offset="1" stop-color="#F42A8B"/>
</linearGradient>
<linearGradient id="paint38_linear_1042_11296" x1="-23867.4" y1="14312" x2="-27952.1" y2="6857.07" gradientUnits="userSpaceOnUse">
<stop offset="0.45" stop-color="#1F89DB"/>
<stop offset="1" stop-color="#F42A8B"/>
</linearGradient>
<linearGradient id="paint39_linear_1042_11296" x1="-21987.4" y1="15568.8" x2="-26453.8" y2="8683.01" gradientUnits="userSpaceOnUse">
<stop offset="0.45" stop-color="#1F89DB"/>
<stop offset="1" stop-color="#F42A8B"/>
</linearGradient>
<linearGradient id="paint40_linear_1042_11296" x1="-20060.8" y1="16624.2" x2="-24847.9" y2="10321.8" gradientUnits="userSpaceOnUse">
<stop offset="0.45" stop-color="#1F89DB"/>
<stop offset="1" stop-color="#F42A8B"/>
</linearGradient>
<linearGradient id="paint41_linear_1042_11296" x1="-18106.8" y1="17478.5" x2="-23153.7" y2="11767.8" gradientUnits="userSpaceOnUse">
<stop offset="0.45" stop-color="#1F89DB"/>
<stop offset="1" stop-color="#F42A8B"/>
</linearGradient>
<linearGradient id="paint42_linear_1042_11296" x1="-16144.4" y1="18133.8" x2="-21390.8" y2="13017.5" gradientUnits="userSpaceOnUse">
<stop offset="0.45" stop-color="#1F89DB"/>
<stop offset="1" stop-color="#F42A8B"/>
</linearGradient>
<linearGradient id="paint43_linear_1042_11296" x1="-14192.1" y1="18593.8" x2="-19578.8" y2="14068.9" gradientUnits="userSpaceOnUse">
<stop offset="0.45" stop-color="#1F89DB"/>
<stop offset="1" stop-color="#F42A8B"/>
</linearGradient>
<linearGradient id="paint44_linear_1042_11296" x1="-12267.8" y1="18863.8" x2="-17737.2" y2="14922" gradientUnits="userSpaceOnUse">
<stop offset="0.45" stop-color="#1F89DB"/>
<stop offset="1" stop-color="#F42A8B"/>
</linearGradient>
<linearGradient id="paint45_linear_1042_11296" x1="-10388.5" y1="18950.9" x2="-15885.1" y2="15578.5" gradientUnits="userSpaceOnUse">
<stop offset="0.45" stop-color="#1F89DB"/>
<stop offset="1" stop-color="#F42A8B"/>
</linearGradient>
<linearGradient id="paint46_linear_1042_11296" x1="-8570.45" y1="18863.3" x2="-14041.4" y2="16041.8" gradientUnits="userSpaceOnUse">
<stop offset="0.45" stop-color="#1F89DB"/>
<stop offset="1" stop-color="#F42A8B"/>
</linearGradient>
<linearGradient id="paint47_linear_1042_11296" x1="-6828.88" y1="18610.8" x2="-12224.1" y2="16317.2" gradientUnits="userSpaceOnUse">
<stop offset="0.45" stop-color="#1F89DB"/>
<stop offset="1" stop-color="#F42A8B"/>
</linearGradient>
<linearGradient id="paint48_linear_1042_11296" x1="-5177.86" y1="18204.5" x2="-10450.7" y2="16411.4" gradientUnits="userSpaceOnUse">
<stop offset="0.45" stop-color="#1F89DB"/>
<stop offset="1" stop-color="#F42A8B"/>
</linearGradient>
<linearGradient id="paint49_linear_1042_11296" x1="-3630.25" y1="17656.4" x2="-8737.71" y2="16332.6" gradientUnits="userSpaceOnUse">
<stop offset="0.45" stop-color="#1F89DB"/>
<stop offset="1" stop-color="#F42A8B"/>
</linearGradient>
<linearGradient id="paint50_linear_1042_11296" x1="-2197.59" y1="16979.9" x2="-7100.69" y2="16090.5" gradientUnits="userSpaceOnUse">
<stop offset="0.45" stop-color="#1F89DB"/>
<stop offset="1" stop-color="#F42A8B"/>
</linearGradient>
<linearGradient id="paint51_linear_1042_11296" x1="-890.026" y1="16189" x2="-5554.05" y2="15696.2" gradientUnits="userSpaceOnUse">
<stop offset="0.45" stop-color="#1F89DB"/>
<stop offset="1" stop-color="#F42A8B"/>
</linearGradient>
<linearGradient id="paint52_linear_1042_11296" x1="283.754" y1="15298.6" x2="-4110.98" y2="15161.9" gradientUnits="userSpaceOnUse">
<stop offset="0.45" stop-color="#1F89DB"/>
<stop offset="1" stop-color="#F42A8B"/>
</linearGradient>
<linearGradient id="paint53_linear_1042_11296" x1="1316.59" y1="14324.1" x2="-2783.34" y2="14500.9" gradientUnits="userSpaceOnUse">
<stop offset="0.45" stop-color="#1F89DB"/>
<stop offset="1" stop-color="#F42A8B"/>
</linearGradient>
<linearGradient id="paint54_linear_1042_11296" x1="2202.87" y1="13281.7" x2="-1581.57" y2="13727.6" gradientUnits="userSpaceOnUse">
<stop offset="0.45" stop-color="#1F89DB"/>
<stop offset="1" stop-color="#F42A8B"/>
</linearGradient>
<linearGradient id="paint55_linear_1042_11296" x1="2938.61" y1="12187.6" x2="-514.618" y2="12856.9" gradientUnits="userSpaceOnUse">
<stop offset="0.45" stop-color="#1F89DB"/>
<stop offset="1" stop-color="#F42A8B"/>
</linearGradient>
<linearGradient id="paint56_linear_1042_11296" x1="3521.39" y1="11058.4" x2="410.102" y2="11904.8" gradientUnits="userSpaceOnUse">
<stop offset="0.45" stop-color="#1F89DB"/>
<stop offset="1" stop-color="#F42A8B"/>
</linearGradient>
<linearGradient id="paint57_linear_1042_11296" x1="3950.45" y1="9910.51" x2="1186.81" y2="10887.5" gradientUnits="userSpaceOnUse">
<stop offset="0.45" stop-color="#1F89DB"/>
<stop offset="1" stop-color="#F42A8B"/>
</linearGradient>
<linearGradient id="paint58_linear_1042_11296" x1="4226.6" y1="8760.52" x2="1811.33" y2="9821.71" gradientUnits="userSpaceOnUse">
<stop offset="0.45" stop-color="#1F89DB"/>
<stop offset="1" stop-color="#F42A8B"/>
</linearGradient>
<linearGradient id="paint59_linear_1042_11296" x1="4352.25" y1="7624.59" x2="2281.15" y2="8724.38" gradientUnits="userSpaceOnUse">
<stop offset="0.45" stop-color="#1F89DB"/>
<stop offset="1" stop-color="#F42A8B"/>
</linearGradient>
<linearGradient id="paint60_linear_1042_11296" x1="4331.37" y1="6518.53" x2="2595.46" y2="7612.5" gradientUnits="userSpaceOnUse">
<stop offset="0.45" stop-color="#1F89DB"/>
<stop offset="1" stop-color="#F42A8B"/>
</linearGradient>
<linearGradient id="paint61_linear_1042_11296" x1="4169.41" y1="5457.62" x2="2755.07" y2="6503" gradientUnits="userSpaceOnUse">
<stop offset="0.45" stop-color="#1F89DB"/>
<stop offset="1" stop-color="#F42A8B"/>
</linearGradient>
<linearGradient id="paint62_linear_1042_11296" x1="3873.28" y1="4456.47" x2="2762.46" y2="5412.57" gradientUnits="userSpaceOnUse">
<stop offset="0.45" stop-color="#1F89DB"/>
<stop offset="1" stop-color="#F42A8B"/>
</linearGradient>
<linearGradient id="paint63_linear_1042_11296" x1="3451.25" y1="3528.87" x2="2621.72" y2="4357.5" gradientUnits="userSpaceOnUse">
<stop offset="0.45" stop-color="#1F89DB"/>
<stop offset="1" stop-color="#F42A8B"/>
</linearGradient>
<linearGradient id="paint64_linear_1042_11296" x1="2912.88" y1="2687.72" x2="2338.5" y2="3353.59" gradientUnits="userSpaceOnUse">
<stop offset="0.45" stop-color="#1F89DB"/>
<stop offset="1" stop-color="#F42A8B"/>
</linearGradient>
<linearGradient id="paint65_linear_1042_11296" x1="2268.93" y1="1944.86" x2="1919.96" y2="2415.93" gradientUnits="userSpaceOnUse">
<stop offset="0.45" stop-color="#1F89DB"/>
<stop offset="1" stop-color="#F42A8B"/>
</linearGradient>
<linearGradient id="paint66_linear_1042_11296" x1="1531.25" y1="1311.01" x2="1374.7" y2="1558.83" gradientUnits="userSpaceOnUse">
<stop offset="0.45" stop-color="#1F89DB"/>
<stop offset="1" stop-color="#F42A8B"/>
</linearGradient>
</defs>
</svg>
